<?xml version="1.0" encoding="utf-8"?>
<!-- Generator: Adobe Illustrator 19.0.0, SVG Export Plug-In . SVG Version: 6.00 Build 0)  -->
<svg version="1.1" xmlns="http://www.w3.org/2000/svg" xmlns:xlink="http://www.w3.org/1999/xlink" x="0px" y="0px"
	 viewBox="0 0 490 560" style="enable-background:new 0 0 490 560;" xml:space="preserve">
<style type="text/css">
	.st0{fill:#555555;}
	.st1{fill:none;stroke:#555555;stroke-miterlimit:10;}
</style>
<g id="Capa_1">
</g>
<g id="Capa_2">
	<g>
		<path class="st0" d="M230.9,155.2v-0.6l1.2-0.1v-9.1l-1.2-0.1v-0.6h3.6v0.6l-1.4,0.1v9.1l4.2-0.1l0.8-2.2l0.6,0.1l-0.5,2.8H230.9z
			"/>
		<path class="st0" d="M239.6,153.1c0-0.3,0.1-0.6,0.2-0.9s0.3-0.5,0.5-0.7s0.5-0.4,0.8-0.5s0.6-0.2,1-0.3s0.7-0.1,1.1-0.2
			s0.8-0.1,1.2-0.1v-0.5c0-0.4,0-0.7-0.1-0.9s-0.1-0.5-0.3-0.6s-0.3-0.3-0.5-0.4s-0.5-0.1-0.9-0.1c-0.3,0-0.6,0-0.8,0.1
			s-0.5,0.1-0.8,0.2s-0.4,0.2-0.6,0.3s-0.3,0.2-0.4,0.2h0l-0.3-0.6c0.1-0.1,0.2-0.1,0.4-0.3s0.5-0.2,0.8-0.4s0.6-0.2,1-0.3
			s0.7-0.1,1-0.1c0.5,0,0.9,0,1.2,0.1s0.6,0.3,0.8,0.5s0.3,0.5,0.4,0.8s0.1,0.8,0.1,1.3v4.7h0.9v0.5c-0.1,0-0.2,0-0.3,0.1
			s-0.2,0-0.3,0.1s-0.2,0-0.3,0.1s-0.2,0-0.3,0c-0.1,0-0.2,0-0.2,0s-0.1,0-0.2-0.1s-0.1-0.1-0.1-0.2s0-0.2,0-0.3v-0.6
			c-0.1,0.1-0.2,0.2-0.4,0.3s-0.3,0.3-0.6,0.4s-0.5,0.2-0.7,0.3s-0.5,0.1-0.8,0.1c-0.3,0-0.6,0-0.9-0.1s-0.5-0.2-0.7-0.4
			s-0.4-0.4-0.5-0.7S239.6,153.5,239.6,153.1z M242.3,154.6c0.2,0,0.3,0,0.5-0.1s0.4-0.1,0.5-0.2s0.4-0.2,0.5-0.3s0.3-0.2,0.5-0.3
			v-2.4c-0.6,0-1.1,0.1-1.6,0.1s-0.8,0.2-1.1,0.4s-0.5,0.4-0.7,0.6s-0.2,0.5-0.2,0.8c0,0.3,0,0.5,0.1,0.7s0.2,0.4,0.3,0.5
			s0.3,0.2,0.5,0.3S242.1,154.6,242.3,154.6z"/>
		<path class="st0" d="M255.1,155.4c-0.4,0-0.8-0.1-1.1-0.2s-0.7-0.4-1-0.7s-0.5-0.7-0.7-1.2s-0.3-1.1-0.3-1.7
			c0-0.6,0.1-1.2,0.3-1.7s0.5-1,0.8-1.4s0.8-0.7,1.3-0.9s1-0.3,1.7-0.3c0.3,0,0.6,0,0.8,0.1s0.5,0.1,0.7,0.1v-2.9l-1.5-0.1V144
			l2.2-0.2h0l0.2,0.2v10.7h0.9v0.5c-0.2,0-0.4,0.1-0.6,0.1s-0.4,0.1-0.7,0.1c-0.1,0-0.2,0-0.2,0s-0.1,0-0.2-0.1s-0.1-0.1-0.1-0.2
			s0-0.2,0-0.3v-0.6c-0.1,0.1-0.3,0.3-0.4,0.4s-0.4,0.3-0.6,0.4s-0.4,0.2-0.7,0.3S255.4,155.4,255.1,155.4z M255.5,154.5
			c0.2,0,0.5,0,0.7-0.1s0.4-0.1,0.6-0.2s0.3-0.2,0.5-0.3s0.3-0.2,0.3-0.3v-5.1c0-0.1-0.1-0.1-0.2-0.2s-0.2-0.1-0.4-0.2
			s-0.3-0.1-0.5-0.1s-0.4,0-0.5,0c-0.4,0-0.8,0.1-1.1,0.2s-0.6,0.3-0.9,0.6s-0.4,0.6-0.6,1.1s-0.2,0.9-0.2,1.5
			c0,0.6,0.1,1.1,0.2,1.5s0.3,0.7,0.5,1s0.5,0.4,0.8,0.6S255.2,154.5,255.5,154.5z"/>
		<path class="st0" d="M264,155.4c-0.5,0-1-0.1-1.4-0.3s-0.8-0.5-1-0.8s-0.5-0.8-0.6-1.3s-0.2-1-0.2-1.7c0-0.6,0.1-1.1,0.3-1.6
			s0.4-0.9,0.7-1.3s0.7-0.6,1.1-0.8s0.9-0.3,1.4-0.3c0.8,0,1.4,0.2,1.9,0.7s0.7,1.2,0.7,2.1c0,0.3,0,0.5,0,0.7s0,0.4-0.1,0.5h-5.1
			c0,0,0,0.1,0,0.1s0,0.1,0,0.1c0,0.5,0.1,1,0.2,1.4s0.3,0.7,0.6,1s0.5,0.5,0.8,0.6s0.6,0.2,1,0.2c0.2,0,0.4,0,0.6-0.1
			s0.4-0.1,0.6-0.2s0.4-0.1,0.5-0.2s0.3-0.2,0.4-0.3l0.2,0.5c-0.1,0.1-0.3,0.3-0.5,0.4s-0.4,0.2-0.7,0.3s-0.5,0.2-0.8,0.2
			S264.3,155.4,264,155.4z M264,147.9c-0.3,0-0.6,0-0.8,0.1s-0.5,0.2-0.7,0.5s-0.4,0.5-0.5,0.8s-0.2,0.7-0.2,1.2h4
			c0-0.1,0-0.2,0-0.3s0-0.2,0-0.3c0-0.3,0-0.6-0.1-0.8s-0.2-0.5-0.3-0.6s-0.3-0.3-0.6-0.4S264.3,147.9,264,147.9z"/>
		<path class="st0" d="M267.9,158l1.1-0.1v-9.6l-1.1-0.2v-0.6l1.7-0.2h0l0.2,0.2v0.9c0.1-0.1,0.3-0.3,0.4-0.4s0.4-0.3,0.6-0.4
			s0.5-0.2,0.7-0.3s0.5-0.1,0.8-0.1c0.4,0,0.8,0.1,1.1,0.2s0.7,0.4,1,0.7s0.5,0.7,0.7,1.2s0.3,1.1,0.3,1.7c0,0.6-0.1,1.2-0.3,1.7
			s-0.5,1-0.8,1.4s-0.8,0.7-1.2,0.9s-1,0.3-1.6,0.3c-0.1,0-0.3,0-0.4,0s-0.3,0-0.4,0s-0.3,0-0.4-0.1s-0.3-0.1-0.4-0.1l0,1.2v1.6
			l1.6,0.1v0.6h-3.7V158z M272.1,148c-0.2,0-0.5,0-0.7,0.1s-0.4,0.1-0.6,0.2s-0.3,0.2-0.5,0.3s-0.2,0.2-0.3,0.3v5.3
			c0,0.1,0.1,0.1,0.2,0.2s0.2,0.1,0.4,0.2s0.3,0.1,0.5,0.1s0.4,0,0.6,0c0.4,0,0.8-0.1,1.1-0.2s0.6-0.4,0.9-0.6s0.4-0.7,0.6-1.1
			s0.2-1,0.2-1.6c0-0.6-0.1-1.1-0.2-1.5s-0.3-0.7-0.5-1s-0.5-0.4-0.8-0.6S272.4,148,272.1,148z"/>
		<path class="st0" d="M276.9,155.2v-0.5l1.1-0.1v-6.3l-1.1-0.2v-0.6l1.7-0.2h0l0.2,0.2v0.5l0,0.8h0c0,0,0.1-0.1,0.2-0.2
			s0.2-0.2,0.3-0.3s0.3-0.2,0.4-0.4s0.3-0.2,0.5-0.3s0.4-0.2,0.7-0.3s0.5-0.1,0.7-0.1c0.1,0,0.2,0,0.2,0s0.1,0,0.2,0v1.1
			c0,0-0.1,0-0.2-0.1s-0.2,0-0.4,0c-0.3,0-0.6,0-0.9,0.1s-0.5,0.1-0.7,0.2s-0.4,0.2-0.6,0.3s-0.3,0.2-0.4,0.3v5.4l1.9,0.1v0.5H276.9
			z"/>
		<path class="st0" d="M286.5,155.4c-0.5,0-1-0.1-1.4-0.3s-0.8-0.5-1-0.8s-0.5-0.8-0.6-1.3s-0.2-1-0.2-1.7c0-0.6,0.1-1.1,0.3-1.6
			s0.4-0.9,0.7-1.3s0.7-0.6,1.1-0.8s0.9-0.3,1.4-0.3c0.8,0,1.4,0.2,1.9,0.7s0.7,1.2,0.7,2.1c0,0.3,0,0.5,0,0.7s0,0.4-0.1,0.5h-5.1
			c0,0,0,0.1,0,0.1s0,0.1,0,0.1c0,0.5,0.1,1,0.2,1.4s0.3,0.7,0.6,1s0.5,0.5,0.8,0.6s0.6,0.2,1,0.2c0.2,0,0.4,0,0.6-0.1
			s0.4-0.1,0.6-0.2s0.4-0.1,0.5-0.2s0.3-0.2,0.4-0.3l0.2,0.5c-0.1,0.1-0.3,0.3-0.5,0.4s-0.4,0.2-0.7,0.3s-0.5,0.2-0.8,0.2
			S286.8,155.4,286.5,155.4z M286.5,147.9c-0.3,0-0.6,0-0.8,0.1s-0.5,0.2-0.7,0.5s-0.4,0.5-0.5,0.8s-0.2,0.7-0.2,1.2h4
			c0-0.1,0-0.2,0-0.3s0-0.2,0-0.3c0-0.3,0-0.6-0.1-0.8s-0.2-0.5-0.3-0.6s-0.3-0.3-0.6-0.4S286.8,147.9,286.5,147.9z"/>
		<path class="st0" d="M290.7,151.4c0-0.5,0.1-1.1,0.2-1.6s0.4-1,0.7-1.3s0.7-0.7,1.2-0.9s1-0.3,1.7-0.3c0.2,0,0.4,0,0.6,0
			s0.4,0.1,0.5,0.1s0.3,0.1,0.5,0.1s0.3,0.1,0.3,0.1l-0.1,1.9h-0.6l-0.3-1.3c-0.1-0.1-0.3-0.2-0.5-0.3s-0.5-0.1-0.8-0.1
			c-0.4,0-0.7,0.1-1,0.2s-0.6,0.4-0.8,0.6s-0.4,0.6-0.5,1s-0.2,0.8-0.2,1.3c0,0.6,0.1,1.1,0.2,1.6s0.3,0.8,0.5,1.1s0.5,0.5,0.8,0.7
			s0.7,0.2,1,0.2c0.2,0,0.4,0,0.6-0.1s0.4-0.1,0.6-0.2s0.4-0.1,0.5-0.2s0.3-0.1,0.4-0.2l0.2,0.4c-0.1,0.1-0.3,0.3-0.5,0.4
			s-0.4,0.2-0.6,0.3s-0.5,0.2-0.7,0.2s-0.5,0.1-0.7,0.1c-0.6,0-1.1-0.1-1.5-0.3s-0.8-0.5-1.1-0.8s-0.5-0.8-0.7-1.3
			S290.8,152,290.7,151.4z"/>
		<path class="st0" d="M297.8,155.2v-0.6l1.3-0.1v-6.3l-1.2-0.2v-0.6l1.9-0.2h0l0.2,0.2v7.1l1.3,0.1v0.6H297.8z M299.3,145.8
			c-0.2,0-0.4-0.1-0.5-0.2s-0.2-0.3-0.2-0.5c0-0.1,0-0.2,0-0.3s0.1-0.2,0.1-0.3s0.1-0.1,0.2-0.2s0.2-0.1,0.3-0.1h0
			c0.1,0,0.2,0,0.3,0.1s0.2,0.1,0.2,0.2s0.1,0.2,0.1,0.2s0,0.2,0,0.3c0,0.1,0,0.2,0,0.3s-0.1,0.2-0.1,0.3s-0.1,0.1-0.2,0.2
			S299.5,145.8,299.3,145.8L299.3,145.8z"/>
		<path class="st0" d="M302.6,153.1c0-0.3,0.1-0.6,0.2-0.9s0.3-0.5,0.5-0.7s0.5-0.4,0.8-0.5s0.6-0.2,1-0.3s0.7-0.1,1.1-0.2
			s0.8-0.1,1.2-0.1v-0.5c0-0.4,0-0.7-0.1-0.9s-0.1-0.5-0.3-0.6s-0.3-0.3-0.5-0.4s-0.5-0.1-0.9-0.1c-0.3,0-0.6,0-0.8,0.1
			s-0.5,0.1-0.8,0.2s-0.4,0.2-0.6,0.3s-0.3,0.2-0.4,0.2h0l-0.3-0.6c0.1-0.1,0.2-0.1,0.4-0.3s0.5-0.2,0.8-0.4s0.6-0.2,1-0.3
			s0.7-0.1,1-0.1c0.5,0,0.9,0,1.2,0.1s0.6,0.3,0.8,0.5s0.3,0.5,0.4,0.8s0.1,0.8,0.1,1.3v4.7h0.9v0.5c-0.1,0-0.2,0-0.3,0.1
			s-0.2,0-0.3,0.1s-0.2,0-0.3,0.1s-0.2,0-0.3,0c-0.1,0-0.2,0-0.2,0s-0.1,0-0.2-0.1s-0.1-0.1-0.1-0.2s0-0.2,0-0.3v-0.6
			c-0.1,0.1-0.2,0.2-0.4,0.3s-0.3,0.3-0.6,0.4s-0.5,0.2-0.7,0.3s-0.5,0.1-0.8,0.1c-0.3,0-0.6,0-0.9-0.1s-0.5-0.2-0.7-0.4
			s-0.4-0.4-0.5-0.7S302.6,153.5,302.6,153.1z M305.2,154.6c0.2,0,0.3,0,0.5-0.1s0.4-0.1,0.5-0.2s0.4-0.2,0.5-0.3s0.3-0.2,0.5-0.3
			v-2.4c-0.6,0-1.1,0.1-1.6,0.1s-0.8,0.2-1.1,0.4s-0.5,0.4-0.7,0.6s-0.2,0.5-0.2,0.8c0,0.3,0,0.5,0.1,0.7s0.2,0.4,0.3,0.5
			s0.3,0.2,0.5,0.3S305,154.6,305.2,154.6z"/>
		<path class="st0" d="M310.4,151.4c0-0.5,0.1-1.1,0.2-1.6s0.4-1,0.7-1.3s0.7-0.7,1.2-0.9s1-0.3,1.7-0.3c0.2,0,0.4,0,0.6,0
			s0.4,0.1,0.5,0.1s0.3,0.1,0.5,0.1s0.3,0.1,0.3,0.1l-0.1,1.9h-0.6l-0.3-1.3c-0.1-0.1-0.3-0.2-0.5-0.3s-0.5-0.1-0.8-0.1
			c-0.4,0-0.7,0.1-1,0.2s-0.6,0.4-0.8,0.6s-0.4,0.6-0.5,1s-0.2,0.8-0.2,1.3c0,0.6,0.1,1.1,0.2,1.6s0.3,0.8,0.5,1.1s0.5,0.5,0.8,0.7
			s0.7,0.2,1,0.2c0.2,0,0.4,0,0.6-0.1s0.4-0.1,0.6-0.2s0.4-0.1,0.5-0.2s0.3-0.1,0.4-0.2l0.2,0.4c-0.1,0.1-0.3,0.3-0.5,0.4
			s-0.4,0.2-0.6,0.3s-0.5,0.2-0.7,0.2s-0.5,0.1-0.7,0.1c-0.6,0-1.1-0.1-1.5-0.3s-0.8-0.5-1.1-0.8s-0.5-0.8-0.7-1.3
			S310.4,152,310.4,151.4z"/>
		<path class="st0" d="M317.4,155.2v-0.6l1.3-0.1v-6.3l-1.2-0.2v-0.6l1.9-0.2h0l0.2,0.2v7.1l1.3,0.1v0.6H317.4z M319,145.8
			c-0.2,0-0.4-0.1-0.5-0.2s-0.2-0.3-0.2-0.5c0-0.1,0-0.2,0-0.3s0.1-0.2,0.1-0.3s0.1-0.1,0.2-0.2s0.2-0.1,0.3-0.1h0
			c0.1,0,0.2,0,0.3,0.1s0.2,0.1,0.2,0.2s0.1,0.2,0.1,0.2s0,0.2,0,0.3c0,0.1,0,0.2,0,0.3s-0.1,0.2-0.1,0.3s-0.1,0.1-0.2,0.2
			S319.1,145.8,319,145.8L319,145.8z"/>
		<path class="st0" d="M322.2,151.2c0-0.6,0.1-1.2,0.3-1.7s0.5-0.9,0.8-1.3s0.7-0.6,1.1-0.8s0.9-0.3,1.3-0.3c0.6,0,1.2,0.1,1.6,0.3
			s0.8,0.5,1.1,0.9s0.5,0.8,0.6,1.3s0.2,1,0.2,1.6c0,0.6-0.1,1.2-0.3,1.7s-0.5,0.9-0.8,1.3s-0.7,0.6-1.1,0.8s-0.9,0.3-1.3,0.3
			c-0.6,0-1.2-0.1-1.6-0.3s-0.8-0.5-1.1-0.9s-0.5-0.8-0.6-1.3S322.2,151.8,322.2,151.2z M325.6,154.6c0.4,0,0.7-0.1,1-0.2
			s0.5-0.3,0.8-0.6s0.4-0.6,0.5-1s0.2-0.9,0.2-1.4c0-0.5,0-0.9-0.1-1.3s-0.2-0.8-0.4-1.1s-0.4-0.6-0.7-0.8s-0.7-0.3-1.1-0.3
			c-0.4,0-0.7,0.1-1,0.2s-0.5,0.3-0.7,0.6s-0.4,0.6-0.5,1s-0.2,0.9-0.2,1.4c0,0.5,0,0.9,0.1,1.3s0.2,0.8,0.4,1.1s0.4,0.6,0.7,0.8
			S325.2,154.6,325.6,154.6z M325.4,145.9l-0.3-0.3l2.2-2.7h0l0.8,0.7c-0.1,0.1-0.2,0.2-0.3,0.3s-0.3,0.3-0.4,0.4s-0.3,0.3-0.5,0.5
			s-0.4,0.3-0.5,0.5s-0.3,0.3-0.5,0.4S325.5,145.9,325.4,145.9L325.4,145.9z"/>
		<path class="st0" d="M330.6,155.2v-0.6l1-0.1v-6.3l-1.1-0.2v-0.6l1.7-0.2h0l0.2,0.2v0.6l0,0.4c0.2-0.1,0.3-0.3,0.6-0.4
			s0.5-0.3,0.8-0.4s0.5-0.2,0.8-0.3s0.6-0.1,0.8-0.1c0.5,0,0.8,0.1,1.1,0.2s0.5,0.3,0.7,0.6s0.3,0.6,0.3,1s0.1,0.9,0.1,1.5v4
			l1.1,0.1v0.6h-3v-0.6l1-0.1v-4c0-0.4,0-0.8-0.1-1.1s-0.1-0.6-0.2-0.8s-0.3-0.4-0.5-0.5s-0.5-0.2-0.9-0.2c-0.2,0-0.4,0-0.7,0.1
			s-0.4,0.1-0.7,0.2s-0.4,0.2-0.6,0.3s-0.4,0.2-0.5,0.4v5.5l1,0.1v0.6H330.6z"/>
		<path class="st0" d="M347.5,155.4c-0.4,0-0.8-0.1-1.1-0.2s-0.7-0.4-1-0.7s-0.5-0.7-0.7-1.2s-0.3-1.1-0.3-1.7
			c0-0.6,0.1-1.2,0.3-1.7s0.5-1,0.8-1.4s0.8-0.7,1.3-0.9s1-0.3,1.7-0.3c0.3,0,0.6,0,0.8,0.1s0.5,0.1,0.7,0.1v-2.9l-1.5-0.1V144
			l2.2-0.2h0l0.2,0.2v10.7h0.9v0.5c-0.2,0-0.4,0.1-0.6,0.1s-0.4,0.1-0.7,0.1c-0.1,0-0.2,0-0.2,0s-0.1,0-0.2-0.1s-0.1-0.1-0.1-0.2
			s0-0.2,0-0.3v-0.6c-0.1,0.1-0.3,0.3-0.4,0.4s-0.4,0.3-0.6,0.4s-0.4,0.2-0.7,0.3S347.8,155.4,347.5,155.4z M347.9,154.5
			c0.2,0,0.5,0,0.7-0.1s0.4-0.1,0.6-0.2s0.3-0.2,0.5-0.3s0.3-0.2,0.3-0.3v-5.1c0-0.1-0.1-0.1-0.2-0.2s-0.2-0.1-0.4-0.2
			s-0.3-0.1-0.5-0.1s-0.4,0-0.5,0c-0.4,0-0.8,0.1-1.1,0.2s-0.6,0.3-0.9,0.6s-0.4,0.6-0.6,1.1s-0.2,0.9-0.2,1.5
			c0,0.6,0.1,1.1,0.2,1.5s0.3,0.7,0.5,1s0.5,0.4,0.8,0.6S347.6,154.5,347.9,154.5z"/>
		<path class="st0" d="M356.4,155.4c-0.5,0-1-0.1-1.4-0.3s-0.8-0.5-1-0.8s-0.5-0.8-0.6-1.3s-0.2-1-0.2-1.7c0-0.6,0.1-1.1,0.3-1.6
			s0.4-0.9,0.7-1.3s0.7-0.6,1.1-0.8s0.9-0.3,1.4-0.3c0.8,0,1.4,0.2,1.9,0.7s0.7,1.2,0.7,2.1c0,0.3,0,0.5,0,0.7s0,0.4-0.1,0.5h-5.1
			c0,0,0,0.1,0,0.1s0,0.1,0,0.1c0,0.5,0.1,1,0.2,1.4s0.3,0.7,0.6,1s0.5,0.5,0.8,0.6s0.6,0.2,1,0.2c0.2,0,0.4,0,0.6-0.1
			s0.4-0.1,0.6-0.2s0.4-0.1,0.5-0.2s0.3-0.2,0.4-0.3l0.2,0.5c-0.1,0.1-0.3,0.3-0.5,0.4s-0.4,0.2-0.7,0.3s-0.5,0.2-0.8,0.2
			S356.7,155.4,356.4,155.4z M356.4,147.9c-0.3,0-0.6,0-0.8,0.1s-0.5,0.2-0.7,0.5s-0.4,0.5-0.5,0.8s-0.2,0.7-0.2,1.2h4
			c0-0.1,0-0.2,0-0.3s0-0.2,0-0.3c0-0.3,0-0.6-0.1-0.8s-0.2-0.5-0.3-0.6s-0.3-0.3-0.6-0.4S356.7,147.9,356.4,147.9z"/>
		<path class="st0" d="M360.6,155.2v-0.6l1.3-0.1v-10l-1.2-0.1V144l2-0.2h0l0.2,0.2v10.6l1.4,0.1v0.6H360.6z"/>
		<path class="st0" d="M369.6,158l1.1-0.1v-9.6l-1.1-0.2v-0.6l1.7-0.2h0l0.2,0.2v0.9c0.1-0.1,0.3-0.3,0.4-0.4s0.4-0.3,0.6-0.4
			s0.5-0.2,0.7-0.3s0.5-0.1,0.8-0.1c0.4,0,0.8,0.1,1.1,0.2s0.7,0.4,1,0.7s0.5,0.7,0.7,1.2s0.3,1.1,0.3,1.7c0,0.6-0.1,1.2-0.3,1.7
			s-0.5,1-0.8,1.4s-0.8,0.7-1.2,0.9s-1,0.3-1.6,0.3c-0.1,0-0.3,0-0.4,0s-0.3,0-0.4,0s-0.3,0-0.4-0.1s-0.3-0.1-0.4-0.1l0,1.2v1.6
			l1.6,0.1v0.6h-3.7V158z M373.8,148c-0.2,0-0.5,0-0.7,0.1s-0.4,0.1-0.6,0.2s-0.3,0.2-0.5,0.3s-0.2,0.2-0.3,0.3v5.3
			c0,0.1,0.1,0.1,0.2,0.2s0.2,0.1,0.4,0.2s0.3,0.1,0.5,0.1s0.4,0,0.6,0c0.4,0,0.8-0.1,1.1-0.2s0.6-0.4,0.9-0.6s0.4-0.7,0.6-1.1
			s0.2-1,0.2-1.6c0-0.6-0.1-1.1-0.2-1.5s-0.3-0.7-0.5-1s-0.5-0.4-0.8-0.6S374.1,148,373.8,148z"/>
		<path class="st0" d="M382,155.4c-0.5,0-1-0.1-1.4-0.3s-0.8-0.5-1-0.8s-0.5-0.8-0.6-1.3s-0.2-1-0.2-1.7c0-0.6,0.1-1.1,0.3-1.6
			s0.4-0.9,0.7-1.3s0.7-0.6,1.1-0.8s0.9-0.3,1.4-0.3c0.8,0,1.4,0.2,1.9,0.7s0.7,1.2,0.7,2.1c0,0.3,0,0.5,0,0.7s0,0.4-0.1,0.5h-5.1
			c0,0,0,0.1,0,0.1s0,0.1,0,0.1c0,0.5,0.1,1,0.2,1.4s0.3,0.7,0.6,1s0.5,0.5,0.8,0.6s0.6,0.2,1,0.2c0.2,0,0.4,0,0.6-0.1
			s0.4-0.1,0.6-0.2s0.4-0.1,0.5-0.2s0.3-0.2,0.4-0.3l0.2,0.5c-0.1,0.1-0.3,0.3-0.5,0.4s-0.4,0.2-0.7,0.3s-0.5,0.2-0.8,0.2
			S382.2,155.4,382,155.4z M381.9,147.9c-0.3,0-0.6,0-0.8,0.1s-0.5,0.2-0.7,0.5s-0.4,0.5-0.5,0.8s-0.2,0.7-0.2,1.2h4
			c0-0.1,0-0.2,0-0.3s0-0.2,0-0.3c0-0.3,0-0.6-0.1-0.8s-0.2-0.5-0.3-0.6s-0.3-0.3-0.6-0.4S382.2,147.9,381.9,147.9z"/>
		<path class="st0" d="M386.4,154.8V153h0.7l0.2,1.1c0.1,0.1,0.1,0.1,0.2,0.2s0.2,0.1,0.4,0.2s0.3,0.1,0.5,0.1s0.4,0.1,0.6,0.1
			c0.6,0,1.1-0.1,1.4-0.4s0.4-0.6,0.4-1c0-0.2,0-0.4-0.1-0.6s-0.2-0.3-0.4-0.4s-0.4-0.3-0.7-0.4s-0.6-0.2-0.9-0.4
			c-0.4-0.1-0.7-0.3-1-0.4s-0.5-0.3-0.7-0.5s-0.3-0.4-0.4-0.7s-0.1-0.5-0.1-0.9c0-0.3,0.1-0.6,0.2-0.8s0.3-0.4,0.6-0.6
			s0.5-0.3,0.9-0.4s0.7-0.1,1-0.1c0.3,0,0.5,0,0.8,0.1s0.4,0.1,0.6,0.1s0.3,0.1,0.5,0.1s0.2,0.1,0.3,0.1v1.6h-0.6l-0.2-1.1
			c0-0.1-0.1-0.1-0.2-0.2s-0.2-0.1-0.3-0.1s-0.3-0.1-0.4-0.1s-0.3,0-0.5,0c-0.2,0-0.4,0-0.6,0.1s-0.4,0.1-0.5,0.2s-0.3,0.2-0.4,0.4
			s-0.1,0.3-0.1,0.5c0,0.3,0.1,0.5,0.2,0.7s0.3,0.3,0.4,0.5s0.4,0.2,0.6,0.3s0.5,0.2,0.7,0.3c0.3,0.1,0.6,0.2,0.9,0.4
			s0.6,0.3,0.8,0.5s0.4,0.4,0.5,0.6s0.2,0.5,0.2,0.9s-0.1,0.7-0.2,0.9s-0.3,0.5-0.6,0.7s-0.6,0.3-0.9,0.4s-0.7,0.1-1.2,0.1
			c-0.2,0-0.4,0-0.7-0.1s-0.5-0.1-0.7-0.1s-0.4-0.1-0.6-0.2S386.5,154.8,386.4,154.8z"/>
		<path class="st0" d="M393.2,151.2c0-0.6,0.1-1.2,0.3-1.7s0.5-0.9,0.8-1.3s0.7-0.6,1.1-0.8s0.9-0.3,1.3-0.3c0.6,0,1.2,0.1,1.6,0.3
			s0.8,0.5,1.1,0.9s0.5,0.8,0.6,1.3s0.2,1,0.2,1.6c0,0.6-0.1,1.2-0.3,1.7s-0.5,0.9-0.8,1.3s-0.7,0.6-1.1,0.8s-0.9,0.3-1.3,0.3
			c-0.6,0-1.2-0.1-1.6-0.3s-0.8-0.5-1.1-0.9s-0.5-0.8-0.6-1.3S393.2,151.8,393.2,151.2z M396.7,154.6c0.4,0,0.7-0.1,1-0.2
			s0.5-0.3,0.8-0.6s0.4-0.6,0.5-1s0.2-0.9,0.2-1.4c0-0.5,0-0.9-0.1-1.3s-0.2-0.8-0.4-1.1s-0.4-0.6-0.7-0.8s-0.7-0.3-1.1-0.3
			c-0.4,0-0.7,0.1-1,0.2s-0.5,0.3-0.7,0.6s-0.4,0.6-0.5,1s-0.2,0.9-0.2,1.4c0,0.5,0,0.9,0.1,1.3s0.2,0.8,0.4,1.1s0.4,0.6,0.7,0.8
			S396.3,154.6,396.7,154.6z"/>
		<path class="st0" d="M234.1,172.1c-0.5,0-1-0.1-1.4-0.3s-0.8-0.5-1-0.8s-0.5-0.8-0.6-1.3s-0.2-1-0.2-1.7c0-0.6,0.1-1.1,0.3-1.6
			s0.4-0.9,0.7-1.3s0.7-0.6,1.1-0.8s0.9-0.3,1.4-0.3c0.8,0,1.4,0.2,1.9,0.7s0.7,1.2,0.7,2.1c0,0.3,0,0.5,0,0.7s0,0.4-0.1,0.5h-5.1
			c0,0,0,0.1,0,0.1s0,0.1,0,0.1c0,0.5,0.1,1,0.2,1.4s0.3,0.7,0.6,1s0.5,0.5,0.8,0.6s0.6,0.2,1,0.2c0.2,0,0.4,0,0.6-0.1
			s0.4-0.1,0.6-0.2s0.4-0.1,0.5-0.2s0.3-0.2,0.4-0.3l0.2,0.5c-0.1,0.1-0.3,0.3-0.5,0.4s-0.4,0.2-0.7,0.3s-0.5,0.2-0.8,0.2
			S234.4,172.1,234.1,172.1z M234.1,164.7c-0.3,0-0.6,0-0.8,0.1s-0.5,0.2-0.7,0.5s-0.4,0.5-0.5,0.8s-0.2,0.7-0.2,1.2h4
			c0-0.1,0-0.2,0-0.3s0-0.2,0-0.3c0-0.3,0-0.6-0.1-0.8s-0.2-0.5-0.3-0.6s-0.3-0.3-0.6-0.4S234.4,164.7,234.1,164.7z"/>
		<path class="st0" d="M238.6,171.6v-1.7h0.7l0.2,1.1c0.1,0.1,0.1,0.1,0.2,0.2s0.2,0.1,0.4,0.2s0.3,0.1,0.5,0.1s0.4,0.1,0.6,0.1
			c0.6,0,1.1-0.1,1.4-0.4s0.4-0.6,0.4-1c0-0.2,0-0.4-0.1-0.6s-0.2-0.3-0.4-0.4s-0.4-0.3-0.7-0.4s-0.6-0.2-0.9-0.4
			c-0.4-0.1-0.7-0.3-1-0.4s-0.5-0.3-0.7-0.5s-0.3-0.4-0.4-0.7s-0.1-0.5-0.1-0.9c0-0.3,0.1-0.6,0.2-0.8s0.3-0.4,0.6-0.6
			s0.5-0.3,0.9-0.4s0.7-0.1,1-0.1c0.3,0,0.5,0,0.8,0.1s0.4,0.1,0.6,0.1s0.3,0.1,0.5,0.1s0.2,0.1,0.3,0.1v1.6h-0.6l-0.2-1.1
			c0-0.1-0.1-0.1-0.2-0.2s-0.2-0.1-0.3-0.1s-0.3-0.1-0.4-0.1s-0.3,0-0.5,0c-0.2,0-0.4,0-0.6,0.1s-0.4,0.1-0.5,0.2s-0.3,0.2-0.4,0.4
			s-0.1,0.3-0.1,0.5c0,0.3,0.1,0.5,0.2,0.7s0.3,0.3,0.4,0.5s0.4,0.2,0.6,0.3s0.5,0.2,0.7,0.3c0.3,0.1,0.6,0.2,0.9,0.4
			s0.6,0.3,0.8,0.5s0.4,0.4,0.5,0.6s0.2,0.5,0.2,0.9s-0.1,0.7-0.2,0.9s-0.3,0.5-0.6,0.7s-0.6,0.3-0.9,0.4s-0.7,0.1-1.2,0.1
			c-0.2,0-0.4,0-0.7-0.1s-0.5-0.1-0.7-0.1s-0.4-0.1-0.6-0.2S238.7,171.6,238.6,171.6z"/>
		<path class="st0" d="M253.3,172.1c-0.5,0-1-0.1-1.4-0.3s-0.8-0.5-1-0.8s-0.5-0.8-0.6-1.3s-0.2-1-0.2-1.7c0-0.6,0.1-1.1,0.3-1.6
			s0.4-0.9,0.7-1.3s0.7-0.6,1.1-0.8s0.9-0.3,1.4-0.3c0.8,0,1.4,0.2,1.9,0.7s0.7,1.2,0.7,2.1c0,0.3,0,0.5,0,0.7s0,0.4-0.1,0.5H251
			c0,0,0,0.1,0,0.1s0,0.1,0,0.1c0,0.5,0.1,1,0.2,1.4s0.3,0.7,0.6,1s0.5,0.5,0.8,0.6s0.6,0.2,1,0.2c0.2,0,0.4,0,0.6-0.1
			s0.4-0.1,0.6-0.2s0.4-0.1,0.5-0.2s0.3-0.2,0.4-0.3l0.2,0.5c-0.1,0.1-0.3,0.3-0.5,0.4s-0.4,0.2-0.7,0.3s-0.5,0.2-0.8,0.2
			S253.6,172.1,253.3,172.1z M253.3,164.7c-0.3,0-0.6,0-0.8,0.1s-0.5,0.2-0.7,0.5s-0.4,0.5-0.5,0.8s-0.2,0.7-0.2,1.2h4
			c0-0.1,0-0.2,0-0.3s0-0.2,0-0.3c0-0.3,0-0.6-0.1-0.8s-0.2-0.5-0.3-0.6s-0.3-0.3-0.6-0.4S253.6,164.7,253.3,164.7z"/>
		<path class="st0" d="M257.5,172v-0.6l1.3-0.1v-10l-1.2-0.1v-0.5l2-0.2h0l0.2,0.2v10.6l1.4,0.1v0.6H257.5z"/>
		<path class="st0" d="M266.5,174.8l1.1-0.1V165l-1.1-0.2v-0.6l1.7-0.2h0l0.2,0.2v0.9c0.1-0.1,0.3-0.3,0.4-0.4s0.4-0.3,0.6-0.4
			s0.5-0.2,0.7-0.3s0.5-0.1,0.8-0.1c0.4,0,0.8,0.1,1.1,0.2s0.7,0.4,1,0.7s0.5,0.7,0.7,1.2s0.3,1.1,0.3,1.7c0,0.6-0.1,1.2-0.3,1.7
			s-0.5,1-0.8,1.4s-0.8,0.7-1.2,0.9s-1,0.3-1.6,0.3c-0.1,0-0.3,0-0.4,0s-0.3,0-0.4,0s-0.3,0-0.4-0.1s-0.3-0.1-0.4-0.1l0,1.2v1.6
			l1.6,0.1v0.6h-3.7V174.8z M270.7,164.8c-0.2,0-0.5,0-0.7,0.1s-0.4,0.1-0.6,0.2s-0.3,0.2-0.5,0.3s-0.2,0.2-0.3,0.3v5.3
			c0,0.1,0.1,0.1,0.2,0.2s0.2,0.1,0.4,0.2s0.3,0.1,0.5,0.1s0.4,0,0.6,0c0.4,0,0.8-0.1,1.1-0.2s0.6-0.4,0.9-0.6s0.4-0.7,0.6-1.1
			s0.2-1,0.2-1.6c0-0.6-0.1-1.1-0.2-1.5s-0.3-0.7-0.5-1s-0.5-0.4-0.8-0.6S271,164.8,270.7,164.8z"/>
		<path class="st0" d="M275.5,172v-0.5l1.1-0.1V165l-1.1-0.2v-0.6l1.7-0.2h0l0.2,0.2v0.5l0,0.8h0c0,0,0.1-0.1,0.2-0.2
			s0.2-0.2,0.3-0.3s0.3-0.2,0.4-0.4s0.3-0.2,0.5-0.3s0.4-0.2,0.7-0.3s0.5-0.1,0.7-0.1c0.1,0,0.2,0,0.2,0s0.1,0,0.2,0v1.1
			c0,0-0.1,0-0.2-0.1s-0.2,0-0.4,0c-0.3,0-0.6,0-0.9,0.1s-0.5,0.1-0.7,0.2s-0.4,0.2-0.6,0.3s-0.3,0.2-0.4,0.3v5.4l1.9,0.1v0.5H275.5
			z"/>
		<path class="st0" d="M281.7,172v-0.6l1.3-0.1V165l-1.2-0.2v-0.6l1.9-0.2h0l0.2,0.2v7.1l1.3,0.1v0.6H281.7z M283.2,162.6
			c-0.2,0-0.4-0.1-0.5-0.2s-0.2-0.3-0.2-0.5c0-0.1,0-0.2,0-0.3s0.1-0.2,0.1-0.3s0.1-0.1,0.2-0.2s0.2-0.1,0.3-0.1h0
			c0.1,0,0.2,0,0.3,0.1s0.2,0.1,0.2,0.2s0.1,0.2,0.1,0.2s0,0.2,0,0.3c0,0.1,0,0.2,0,0.3s-0.1,0.2-0.1,0.3s-0.1,0.1-0.2,0.2
			S283.4,162.6,283.2,162.6L283.2,162.6z"/>
		<path class="st0" d="M286.5,172v-0.6l1-0.1V165l-1.1-0.2v-0.6l1.7-0.2h0l0.2,0.2v0.6l0,0.4c0.2-0.1,0.3-0.3,0.6-0.4
			s0.5-0.3,0.8-0.4s0.5-0.2,0.8-0.3s0.6-0.1,0.8-0.1c0.5,0,0.8,0.1,1.1,0.2s0.5,0.3,0.7,0.6s0.3,0.6,0.3,1s0.1,0.9,0.1,1.5v4
			l1.1,0.1v0.6h-3v-0.6l1-0.1v-4c0-0.4,0-0.8-0.1-1.1s-0.1-0.6-0.2-0.8s-0.3-0.4-0.5-0.5s-0.5-0.2-0.9-0.2c-0.2,0-0.4,0-0.7,0.1
			s-0.4,0.1-0.7,0.2s-0.4,0.2-0.6,0.3s-0.4,0.2-0.5,0.4v5.5l1,0.1v0.6H286.5z"/>
		<path class="st0" d="M295.8,168.2c0-0.5,0.1-1.1,0.2-1.6s0.4-1,0.7-1.3s0.7-0.7,1.2-0.9s1-0.3,1.7-0.3c0.2,0,0.4,0,0.6,0
			s0.4,0.1,0.5,0.1s0.3,0.1,0.5,0.1s0.3,0.1,0.3,0.1l-0.1,1.9h-0.6l-0.3-1.3c-0.1-0.1-0.3-0.2-0.5-0.3s-0.5-0.1-0.8-0.1
			c-0.4,0-0.7,0.1-1,0.2s-0.6,0.4-0.8,0.6s-0.4,0.6-0.5,1s-0.2,0.8-0.2,1.3c0,0.6,0.1,1.1,0.2,1.6s0.3,0.8,0.5,1.1s0.5,0.5,0.8,0.7
			s0.7,0.2,1,0.2c0.2,0,0.4,0,0.6-0.1s0.4-0.1,0.6-0.2s0.4-0.1,0.5-0.2s0.3-0.1,0.4-0.2l0.2,0.4c-0.1,0.1-0.3,0.3-0.5,0.4
			s-0.4,0.2-0.6,0.3s-0.5,0.2-0.7,0.2s-0.5,0.1-0.7,0.1c-0.6,0-1.1-0.1-1.5-0.3s-0.8-0.5-1.1-0.8s-0.5-0.8-0.7-1.3
			S295.8,168.8,295.8,168.2z"/>
		<path class="st0" d="M302.8,172v-0.6l1.3-0.1V165l-1.2-0.2v-0.6l1.9-0.2h0l0.2,0.2v7.1l1.3,0.1v0.6H302.8z M304.4,162.6
			c-0.2,0-0.4-0.1-0.5-0.2s-0.2-0.3-0.2-0.5c0-0.1,0-0.2,0-0.3s0.1-0.2,0.1-0.3s0.1-0.1,0.2-0.2s0.2-0.1,0.3-0.1h0
			c0.1,0,0.2,0,0.3,0.1s0.2,0.1,0.2,0.2s0.1,0.2,0.1,0.2s0,0.2,0,0.3c0,0.1,0,0.2,0,0.3s-0.1,0.2-0.1,0.3s-0.1,0.1-0.2,0.2
			S304.5,162.6,304.4,162.6L304.4,162.6z"/>
		<path class="st0" d="M307.3,174.8l1.1-0.1V165l-1.1-0.2v-0.6l1.7-0.2h0l0.2,0.2v0.9c0.1-0.1,0.3-0.3,0.4-0.4s0.4-0.3,0.6-0.4
			s0.5-0.2,0.7-0.3s0.5-0.1,0.8-0.1c0.4,0,0.8,0.1,1.1,0.2s0.7,0.4,1,0.7s0.5,0.7,0.7,1.2s0.3,1.1,0.3,1.7c0,0.6-0.1,1.2-0.3,1.7
			s-0.5,1-0.8,1.4s-0.8,0.7-1.2,0.9s-1,0.3-1.6,0.3c-0.1,0-0.3,0-0.4,0s-0.3,0-0.4,0s-0.3,0-0.4-0.1s-0.3-0.1-0.4-0.1l0,1.2v1.6
			l1.6,0.1v0.6h-3.7V174.8z M311.4,164.8c-0.2,0-0.5,0-0.7,0.1s-0.4,0.1-0.6,0.2s-0.3,0.2-0.5,0.3s-0.2,0.2-0.3,0.3v5.3
			c0,0.1,0.1,0.1,0.2,0.2s0.2,0.1,0.4,0.2s0.3,0.1,0.5,0.1s0.4,0,0.6,0c0.4,0,0.8-0.1,1.1-0.2s0.6-0.4,0.9-0.6s0.4-0.7,0.6-1.1
			s0.2-1,0.2-1.6c0-0.6-0.1-1.1-0.2-1.5s-0.3-0.7-0.5-1s-0.5-0.4-0.8-0.6S311.7,164.8,311.4,164.8z"/>
		<path class="st0" d="M316.3,169.9c0-0.3,0.1-0.6,0.2-0.9s0.3-0.5,0.5-0.7s0.5-0.4,0.8-0.5s0.6-0.2,1-0.3s0.7-0.1,1.1-0.2
			s0.8-0.1,1.2-0.1v-0.5c0-0.4,0-0.7-0.1-0.9s-0.1-0.5-0.3-0.6s-0.3-0.3-0.5-0.4s-0.5-0.1-0.9-0.1c-0.3,0-0.6,0-0.8,0.1
			s-0.5,0.1-0.8,0.2s-0.4,0.2-0.6,0.3s-0.3,0.2-0.4,0.2h0l-0.3-0.6c0.1-0.1,0.2-0.1,0.4-0.3s0.5-0.2,0.8-0.4s0.6-0.2,1-0.3
			s0.7-0.1,1-0.1c0.5,0,0.9,0,1.2,0.1s0.6,0.3,0.8,0.5s0.3,0.5,0.4,0.8s0.1,0.8,0.1,1.3v4.7h0.9v0.5c-0.1,0-0.2,0-0.3,0.1
			s-0.2,0-0.3,0.1s-0.2,0-0.3,0.1s-0.2,0-0.3,0c-0.1,0-0.2,0-0.2,0s-0.1,0-0.2-0.1s-0.1-0.1-0.1-0.2s0-0.2,0-0.3V171
			c-0.1,0.1-0.2,0.2-0.4,0.3s-0.3,0.3-0.6,0.4s-0.5,0.2-0.7,0.3s-0.5,0.1-0.8,0.1c-0.3,0-0.6,0-0.9-0.1s-0.5-0.2-0.7-0.4
			s-0.4-0.4-0.5-0.7S316.3,170.3,316.3,169.9z M318.9,171.4c0.2,0,0.3,0,0.5-0.1s0.4-0.1,0.5-0.2s0.4-0.2,0.5-0.3s0.3-0.2,0.5-0.3
			V168c-0.6,0-1.1,0.1-1.6,0.1s-0.8,0.2-1.1,0.4s-0.5,0.4-0.7,0.6s-0.2,0.5-0.2,0.8c0,0.3,0,0.5,0.1,0.7s0.2,0.4,0.3,0.5
			s0.3,0.2,0.5,0.3S318.7,171.4,318.9,171.4z"/>
		<path class="st0" d="M324,172v-0.6l1.3-0.1v-10l-1.2-0.1v-0.5l2-0.2h0l0.2,0.2v10.6l1.4,0.1v0.6H324z"/>
		<path class="st0" d="M333.2,172v-0.6l1.3-0.1V165H333v-0.5l1.5-0.3v-0.7c0-0.4,0.1-0.8,0.2-1.2s0.4-0.7,0.7-1s0.6-0.5,0.9-0.7
			s0.7-0.2,1.1-0.2c0.2,0,0.4,0,0.5,0s0.2,0,0.3,0.1v1c-0.1,0-0.2-0.1-0.4-0.1s-0.4-0.1-0.7-0.1c-0.3,0-0.5,0-0.7,0.1
			s-0.4,0.2-0.5,0.3s-0.3,0.3-0.3,0.6s-0.1,0.5-0.1,0.9v1h2.1v0.8h-2.1v6.3l1.6,0.1v0.6H333.2z"/>
		<path class="st0" d="M338.8,169.9c0-0.3,0.1-0.6,0.2-0.9s0.3-0.5,0.5-0.7s0.5-0.4,0.8-0.5s0.6-0.2,1-0.3s0.7-0.1,1.1-0.2
			s0.8-0.1,1.2-0.1v-0.5c0-0.4,0-0.7-0.1-0.9s-0.1-0.5-0.3-0.6s-0.3-0.3-0.5-0.4s-0.5-0.1-0.9-0.1c-0.3,0-0.6,0-0.8,0.1
			s-0.5,0.1-0.8,0.2s-0.4,0.2-0.6,0.3s-0.3,0.2-0.4,0.2h0l-0.3-0.6c0.1-0.1,0.2-0.1,0.4-0.3s0.5-0.2,0.8-0.4s0.6-0.2,1-0.3
			s0.7-0.1,1-0.1c0.5,0,0.9,0,1.2,0.1s0.6,0.3,0.8,0.5s0.3,0.5,0.4,0.8s0.1,0.8,0.1,1.3v4.7h0.9v0.5c-0.1,0-0.2,0-0.3,0.1
			s-0.2,0-0.3,0.1s-0.2,0-0.3,0.1s-0.2,0-0.3,0c-0.1,0-0.2,0-0.2,0s-0.1,0-0.2-0.1s-0.1-0.1-0.1-0.2s0-0.2,0-0.3V171
			c-0.1,0.1-0.2,0.2-0.4,0.3s-0.3,0.3-0.6,0.4s-0.5,0.2-0.7,0.3s-0.5,0.1-0.8,0.1c-0.3,0-0.6,0-0.9-0.1s-0.5-0.2-0.7-0.4
			s-0.4-0.4-0.5-0.7S338.8,170.3,338.8,169.9z M341.5,171.4c0.2,0,0.3,0,0.5-0.1s0.4-0.1,0.5-0.2s0.4-0.2,0.5-0.3s0.3-0.2,0.5-0.3
			V168c-0.6,0-1.1,0.1-1.6,0.1s-0.8,0.2-1.1,0.4s-0.5,0.4-0.7,0.6s-0.2,0.5-0.2,0.8c0,0.3,0,0.5,0.1,0.7s0.2,0.4,0.3,0.5
			s0.3,0.2,0.5,0.3S341.2,171.4,341.5,171.4z"/>
		<path class="st0" d="M346.6,168.2c0-0.5,0.1-1.1,0.2-1.6s0.4-1,0.7-1.3s0.7-0.7,1.2-0.9s1-0.3,1.7-0.3c0.2,0,0.4,0,0.6,0
			s0.4,0.1,0.5,0.1s0.3,0.1,0.5,0.1s0.3,0.1,0.3,0.1l-0.1,1.9h-0.6l-0.3-1.3c-0.1-0.1-0.3-0.2-0.5-0.3s-0.5-0.1-0.8-0.1
			c-0.4,0-0.7,0.1-1,0.2s-0.6,0.4-0.8,0.6s-0.4,0.6-0.5,1s-0.2,0.8-0.2,1.3c0,0.6,0.1,1.1,0.2,1.6s0.3,0.8,0.5,1.1s0.5,0.5,0.8,0.7
			s0.7,0.2,1,0.2c0.2,0,0.4,0,0.6-0.1s0.4-0.1,0.6-0.2s0.4-0.1,0.5-0.2s0.3-0.1,0.4-0.2l0.2,0.4c-0.1,0.1-0.3,0.3-0.5,0.4
			s-0.4,0.2-0.6,0.3s-0.5,0.2-0.7,0.2s-0.5,0.1-0.7,0.1c-0.6,0-1.1-0.1-1.5-0.3s-0.8-0.5-1.1-0.8s-0.5-0.8-0.7-1.3
			S346.6,168.8,346.6,168.2z"/>
		<path class="st0" d="M354.6,170.6V165h-1.1v-0.5c0.1,0,0.1,0,0.2,0s0.2,0,0.2,0s0.2,0,0.2-0.1s0.1,0,0.1-0.1
			c0.1,0,0.1-0.1,0.2-0.2s0.1-0.2,0.1-0.3c0-0.1,0.1-0.2,0.1-0.3s0.1-0.3,0.1-0.4s0.1-0.3,0.1-0.4s0.1-0.2,0.1-0.3h0.6v1.8h2.6v0.8
			h-2.6v4.7c0,0.4,0,0.7,0,0.9s0.1,0.4,0.1,0.5s0.2,0.2,0.3,0.2s0.3,0,0.5,0h0c0.1,0,0.3,0,0.5,0s0.3-0.1,0.5-0.1s0.3-0.1,0.4-0.1
			s0.2-0.1,0.3-0.1h0l0.2,0.5c-0.1,0.1-0.2,0.2-0.4,0.2s-0.4,0.2-0.6,0.2s-0.4,0.1-0.7,0.2s-0.4,0.1-0.6,0.1h0c-0.2,0-0.4,0-0.6-0.1
			s-0.3-0.1-0.5-0.2s-0.2-0.3-0.3-0.5S354.6,170.9,354.6,170.6z"/>
		<path class="st0" d="M359.4,168c0-0.6,0.1-1.2,0.3-1.7s0.5-0.9,0.8-1.3s0.7-0.6,1.1-0.8s0.9-0.3,1.3-0.3c0.6,0,1.2,0.1,1.6,0.3
			s0.8,0.5,1.1,0.9s0.5,0.8,0.6,1.3s0.2,1,0.2,1.6c0,0.6-0.1,1.2-0.3,1.7s-0.5,0.9-0.8,1.3s-0.7,0.6-1.1,0.8s-0.9,0.3-1.3,0.3
			c-0.6,0-1.2-0.1-1.6-0.3s-0.8-0.5-1.1-0.9s-0.5-0.8-0.6-1.3S359.4,168.6,359.4,168z M362.9,171.4c0.4,0,0.7-0.1,1-0.2
			s0.5-0.3,0.8-0.6s0.4-0.6,0.5-1s0.2-0.9,0.2-1.4c0-0.5,0-0.9-0.1-1.3s-0.2-0.8-0.4-1.1s-0.4-0.6-0.7-0.8s-0.7-0.3-1.1-0.3
			c-0.4,0-0.7,0.1-1,0.2s-0.5,0.3-0.7,0.6s-0.4,0.6-0.5,1s-0.2,0.9-0.2,1.4c0,0.5,0,0.9,0.1,1.3s0.2,0.8,0.4,1.1s0.4,0.6,0.7,0.8
			S362.4,171.4,362.9,171.4z"/>
		<path class="st0" d="M367.8,172v-0.5l1.1-0.1V165l-1.1-0.2v-0.6l1.7-0.2h0l0.2,0.2v0.5l0,0.8h0c0,0,0.1-0.1,0.2-0.2
			s0.2-0.2,0.3-0.3s0.3-0.2,0.4-0.4s0.3-0.2,0.5-0.3s0.4-0.2,0.7-0.3s0.5-0.1,0.7-0.1c0.1,0,0.2,0,0.2,0s0.1,0,0.2,0v1.1
			c0,0-0.1,0-0.2-0.1s-0.2,0-0.4,0c-0.3,0-0.6,0-0.9,0.1s-0.5,0.1-0.7,0.2s-0.4,0.2-0.6,0.3s-0.3,0.2-0.4,0.3v5.4l1.9,0.1v0.5H367.8
			z"/>
		<path class="st0" d="M381.7,172.1c-0.4,0-0.8-0.1-1.1-0.2s-0.7-0.4-1-0.7s-0.5-0.7-0.7-1.2s-0.3-1.1-0.3-1.7
			c0-0.6,0.1-1.2,0.3-1.7s0.4-1,0.8-1.3s0.8-0.7,1.2-0.9s1-0.3,1.7-0.3c0.3,0,0.6,0,0.9,0.1s0.6,0.1,0.8,0.2l0.6-0.2h0l0.2,0.2v10.5
			l1,0.1v0.5h-3.6v-0.5l1.6-0.1v-2.4l0-1.3c-0.1,0.1-0.3,0.2-0.4,0.4s-0.4,0.2-0.6,0.3s-0.4,0.2-0.7,0.3S382,172.1,381.7,172.1z
			 M382.1,171.4c0.2,0,0.5,0,0.7-0.1s0.4-0.1,0.6-0.2s0.3-0.2,0.5-0.3s0.2-0.2,0.3-0.3v-5.4c0-0.1-0.1-0.1-0.2-0.2s-0.2-0.1-0.4-0.2
			s-0.3-0.1-0.5-0.1s-0.4,0-0.6,0c-0.4,0-0.8,0.1-1.1,0.2s-0.6,0.4-0.9,0.6s-0.4,0.7-0.6,1.1s-0.2,1-0.2,1.6c0,0.6,0.1,1.1,0.2,1.5
			s0.3,0.8,0.5,1s0.5,0.5,0.8,0.6S381.8,171.4,382.1,171.4z"/>
		<path class="st0" d="M393.4,172.1c-0.2,0-0.4,0-0.5-0.1s-0.2-0.2-0.2-0.4v-0.6c-0.1,0.1-0.3,0.3-0.5,0.4s-0.4,0.3-0.6,0.4
			s-0.5,0.2-0.7,0.3s-0.5,0.1-0.8,0.1c-0.4,0-0.8-0.1-1.1-0.2s-0.5-0.3-0.7-0.6s-0.3-0.6-0.4-1s-0.1-0.8-0.1-1.4v-4.2l-0.8-0.2v-0.5
			l1.6-0.2h0l0.2,0.2v4.7c0,0.4,0,0.8,0.1,1.1s0.1,0.6,0.2,0.8s0.3,0.3,0.5,0.4s0.5,0.1,0.8,0.1c0.2,0,0.5,0,0.7-0.1
			s0.4-0.1,0.6-0.2s0.4-0.2,0.5-0.3s0.3-0.2,0.4-0.3v-5.4l-1.1-0.2v-0.5l1.8-0.2h0l0.3,0.2v7.2h0.9l0,0.5c-0.2,0-0.3,0.1-0.5,0.1
			S393.7,172.1,393.4,172.1z"/>
		<path class="st0" d="M399.4,172.1c-0.5,0-1-0.1-1.4-0.3s-0.8-0.5-1-0.8s-0.5-0.8-0.6-1.3s-0.2-1-0.2-1.7c0-0.6,0.1-1.1,0.3-1.6
			s0.4-0.9,0.7-1.3s0.7-0.6,1.1-0.8s0.9-0.3,1.4-0.3c0.8,0,1.4,0.2,1.9,0.7s0.7,1.2,0.7,2.1c0,0.3,0,0.5,0,0.7s0,0.4-0.1,0.5h-5.1
			c0,0,0,0.1,0,0.1s0,0.1,0,0.1c0,0.5,0.1,1,0.2,1.4s0.3,0.7,0.6,1s0.5,0.5,0.8,0.6s0.6,0.2,1,0.2c0.2,0,0.4,0,0.6-0.1
			s0.4-0.1,0.6-0.2s0.4-0.1,0.5-0.2s0.3-0.2,0.4-0.3l0.2,0.5c-0.1,0.1-0.3,0.3-0.5,0.4s-0.4,0.2-0.7,0.3s-0.5,0.2-0.8,0.2
			S399.6,172.1,399.4,172.1z M399.3,164.7c-0.3,0-0.6,0-0.8,0.1s-0.5,0.2-0.7,0.5s-0.4,0.5-0.5,0.8s-0.2,0.7-0.2,1.2h4
			c0-0.1,0-0.2,0-0.3s0-0.2,0-0.3c0-0.3,0-0.6-0.1-0.8s-0.2-0.5-0.3-0.6s-0.3-0.3-0.6-0.4S399.7,164.7,399.3,164.7z"/>
		<path class="st0" d="M230.5,191.6l1.1-0.1v-9.6l-1.1-0.2v-0.6l1.7-0.2h0l0.2,0.2v0.9c0.1-0.1,0.3-0.3,0.4-0.4s0.4-0.3,0.6-0.4
			s0.5-0.2,0.7-0.3s0.5-0.1,0.8-0.1c0.4,0,0.8,0.1,1.1,0.2s0.7,0.4,1,0.7s0.5,0.7,0.7,1.2s0.3,1.1,0.3,1.7c0,0.6-0.1,1.2-0.3,1.7
			s-0.5,1-0.8,1.4s-0.8,0.7-1.2,0.9s-1,0.3-1.6,0.3c-0.1,0-0.3,0-0.4,0s-0.3,0-0.4,0s-0.3,0-0.4-0.1s-0.3-0.1-0.4-0.1l0,1.2v1.6
			l1.6,0.1v0.6h-3.7V191.6z M234.6,181.6c-0.2,0-0.5,0-0.7,0.1s-0.4,0.1-0.6,0.2s-0.3,0.2-0.5,0.3s-0.2,0.2-0.3,0.3v5.3
			c0,0.1,0.1,0.1,0.2,0.2s0.2,0.1,0.4,0.2s0.3,0.1,0.5,0.1s0.4,0,0.6,0c0.4,0,0.8-0.1,1.1-0.2s0.6-0.4,0.9-0.6s0.4-0.7,0.6-1.1
			s0.2-1,0.2-1.6c0-0.6-0.1-1.1-0.2-1.5s-0.3-0.7-0.5-1s-0.5-0.4-0.8-0.6S234.9,181.6,234.6,181.6z"/>
		<path class="st0" d="M239.5,184.8c0-0.6,0.1-1.2,0.3-1.7s0.5-0.9,0.8-1.3s0.7-0.6,1.1-0.8s0.9-0.3,1.3-0.3c0.6,0,1.2,0.1,1.6,0.3
			s0.8,0.5,1.1,0.9s0.5,0.8,0.6,1.3s0.2,1,0.2,1.6c0,0.6-0.1,1.2-0.3,1.7s-0.5,0.9-0.8,1.3s-0.7,0.6-1.1,0.8s-0.9,0.3-1.3,0.3
			c-0.6,0-1.2-0.1-1.6-0.3s-0.8-0.5-1.1-0.9s-0.5-0.8-0.6-1.3S239.5,185.4,239.5,184.8z M243,188.2c0.4,0,0.7-0.1,1-0.2
			s0.5-0.3,0.8-0.6s0.4-0.6,0.5-1s0.2-0.9,0.2-1.4c0-0.5,0-0.9-0.1-1.3s-0.2-0.8-0.4-1.1s-0.4-0.6-0.7-0.8s-0.7-0.3-1.1-0.3
			c-0.4,0-0.7,0.1-1,0.2s-0.5,0.3-0.7,0.6s-0.4,0.6-0.5,1s-0.2,0.9-0.2,1.4c0,0.5,0,0.9,0.1,1.3s0.2,0.8,0.4,1.1s0.4,0.6,0.7,0.8
			S242.5,188.2,243,188.2z"/>
		<path class="st0" d="M250.9,189c-0.4,0-0.8-0.1-1.1-0.2s-0.7-0.4-1-0.7s-0.5-0.7-0.7-1.2s-0.3-1.1-0.3-1.7c0-0.6,0.1-1.2,0.3-1.7
			s0.5-1,0.8-1.4s0.8-0.7,1.3-0.9s1-0.3,1.7-0.3c0.3,0,0.6,0,0.8,0.1s0.5,0.1,0.7,0.1v-2.9l-1.5-0.1v-0.5l2.2-0.2h0l0.2,0.2v10.7
			h0.9v0.5c-0.2,0-0.4,0.1-0.6,0.1s-0.4,0.1-0.7,0.1c-0.1,0-0.2,0-0.2,0s-0.1,0-0.2-0.1s-0.1-0.1-0.1-0.2s0-0.2,0-0.3v-0.6
			c-0.1,0.1-0.3,0.3-0.4,0.4s-0.4,0.3-0.6,0.4s-0.4,0.2-0.7,0.3S251.2,189,250.9,189z M251.3,188.1c0.2,0,0.5,0,0.7-0.1
			s0.4-0.1,0.6-0.2s0.3-0.2,0.5-0.3s0.3-0.2,0.3-0.3V182c0-0.1-0.1-0.1-0.2-0.2s-0.2-0.1-0.4-0.2s-0.3-0.1-0.5-0.1s-0.4,0-0.5,0
			c-0.4,0-0.8,0.1-1.1,0.2s-0.6,0.3-0.9,0.6s-0.4,0.6-0.6,1.1s-0.2,0.9-0.2,1.5c0,0.6,0.1,1.1,0.2,1.5s0.3,0.7,0.5,1
			s0.5,0.4,0.8,0.6S251,188.1,251.3,188.1z"/>
		<path class="st0" d="M256.5,188.8v-0.5l1.1-0.1v-6.3l-1.1-0.2v-0.6l1.7-0.2h0l0.2,0.2v0.5l0,0.8h0c0,0,0.1-0.1,0.2-0.2
			s0.2-0.2,0.3-0.3s0.3-0.2,0.4-0.4s0.3-0.2,0.5-0.3s0.4-0.2,0.7-0.3s0.5-0.1,0.7-0.1c0.1,0,0.2,0,0.2,0s0.1,0,0.2,0v1.1
			c0,0-0.1,0-0.2-0.1s-0.2,0-0.4,0c-0.3,0-0.6,0-0.9,0.1s-0.5,0.1-0.7,0.2s-0.4,0.2-0.6,0.3s-0.3,0.2-0.4,0.3v5.4l1.9,0.1v0.5H256.5
			z"/>
		<path class="st0" d="M262.7,188.8v-0.6l1.3-0.1v-6.3l-1.2-0.2v-0.6l1.9-0.2h0l0.2,0.2v7.1l1.3,0.1v0.6H262.7z M264.1,179.5
			l-0.3-0.3l2.2-2.7h0l0.8,0.7c-0.1,0.1-0.2,0.2-0.3,0.3s-0.3,0.3-0.4,0.4s-0.3,0.3-0.5,0.5s-0.4,0.3-0.5,0.5s-0.3,0.3-0.5,0.4
			S264.2,179.5,264.1,179.5L264.1,179.5z"/>
		<path class="st0" d="M267.5,186.7c0-0.3,0.1-0.6,0.2-0.9s0.3-0.5,0.5-0.7s0.5-0.4,0.8-0.5s0.6-0.2,1-0.3s0.7-0.1,1.1-0.2
			s0.8-0.1,1.2-0.1v-0.5c0-0.4,0-0.7-0.1-0.9s-0.1-0.5-0.3-0.6s-0.3-0.3-0.5-0.4s-0.5-0.1-0.9-0.1c-0.3,0-0.6,0-0.8,0.1
			s-0.5,0.1-0.8,0.2s-0.4,0.2-0.6,0.3s-0.3,0.2-0.4,0.2h0l-0.3-0.6c0.1-0.1,0.2-0.1,0.4-0.3s0.5-0.2,0.8-0.4s0.6-0.2,1-0.3
			s0.7-0.1,1-0.1c0.5,0,0.9,0,1.2,0.1s0.6,0.3,0.8,0.5s0.3,0.5,0.4,0.8s0.1,0.8,0.1,1.3v4.7h0.9v0.5c-0.1,0-0.2,0-0.3,0.1
			s-0.2,0-0.3,0.1s-0.2,0-0.3,0.1s-0.2,0-0.3,0c-0.1,0-0.2,0-0.2,0s-0.1,0-0.2-0.1s-0.1-0.1-0.1-0.2s0-0.2,0-0.3v-0.6
			c-0.1,0.1-0.2,0.2-0.4,0.3s-0.3,0.3-0.6,0.4s-0.5,0.2-0.7,0.3s-0.5,0.1-0.8,0.1c-0.3,0-0.6,0-0.9-0.1s-0.5-0.2-0.7-0.4
			s-0.4-0.4-0.5-0.7S267.5,187.1,267.5,186.7z M270.1,188.2c0.2,0,0.3,0,0.5-0.1s0.4-0.1,0.5-0.2s0.4-0.2,0.5-0.3s0.3-0.2,0.5-0.3
			v-2.4c-0.6,0-1.1,0.1-1.6,0.1s-0.8,0.2-1.1,0.4s-0.5,0.4-0.7,0.6s-0.2,0.5-0.2,0.8c0,0.3,0,0.5,0.1,0.7s0.2,0.4,0.3,0.5
			s0.3,0.2,0.5,0.3S269.9,188.2,270.1,188.2z"/>
		<path class="st0" d="M279.8,188.8v-0.6l1.3-0.1v-6.3l-1.2-0.2v-0.6l1.9-0.2h0l0.2,0.2v7.1l1.3,0.1v0.6H279.8z M281.3,179.4
			c-0.2,0-0.4-0.1-0.5-0.2s-0.2-0.3-0.2-0.5c0-0.1,0-0.2,0-0.3s0.1-0.2,0.1-0.3s0.1-0.1,0.2-0.2s0.2-0.1,0.3-0.1h0
			c0.1,0,0.2,0,0.3,0.1s0.2,0.1,0.2,0.2s0.1,0.2,0.1,0.2s0,0.2,0,0.3c0,0.1,0,0.2,0,0.3s-0.1,0.2-0.1,0.3s-0.1,0.1-0.2,0.2
			S281.4,179.4,281.3,179.4L281.3,179.4z"/>
		<path class="st0" d="M284.6,188.8v-0.6l0.9-0.1v-6.3l-1.1-0.2v-0.6l1.7-0.2h0l0.2,0.2v0.6l0,0.4c0.2-0.1,0.3-0.3,0.6-0.4
			s0.5-0.3,0.7-0.4s0.5-0.2,0.8-0.3s0.5-0.1,0.8-0.1c0.5,0,0.9,0.1,1.2,0.3s0.5,0.4,0.7,0.8c0.1-0.1,0.3-0.2,0.5-0.3
			s0.4-0.2,0.7-0.3s0.5-0.2,0.8-0.3s0.5-0.1,0.8-0.1c0.4,0,0.8,0.1,1.1,0.2s0.5,0.3,0.7,0.6s0.3,0.6,0.4,1s0.1,0.9,0.1,1.5v4
			l1.1,0.1v0.6h-3v-0.6l1-0.1v-4c0-0.4,0-0.8-0.1-1.1s-0.1-0.6-0.2-0.8s-0.3-0.4-0.5-0.5s-0.5-0.2-0.9-0.2c-0.2,0-0.4,0-0.6,0.1
			s-0.4,0.1-0.6,0.2s-0.4,0.2-0.5,0.3s-0.3,0.2-0.4,0.3c0.1,0.2,0.1,0.5,0.1,0.8s0,0.6,0,0.9v4l1.1,0.1v0.6h-3.1v-0.6l1-0.1v-4
			c0-0.4,0-0.8,0-1.1s-0.1-0.6-0.2-0.8s-0.3-0.4-0.5-0.5s-0.5-0.2-0.8-0.2c-0.2,0-0.4,0-0.6,0.1s-0.4,0.1-0.7,0.2s-0.4,0.2-0.6,0.3
			s-0.4,0.2-0.5,0.4v5.5l1,0.1v0.6H284.6z"/>
		<path class="st0" d="M298.1,191.6l1.1-0.1v-9.6l-1.1-0.2v-0.6l1.7-0.2h0l0.2,0.2v0.9c0.1-0.1,0.3-0.3,0.4-0.4s0.4-0.3,0.6-0.4
			s0.5-0.2,0.7-0.3s0.5-0.1,0.8-0.1c0.4,0,0.8,0.1,1.1,0.2s0.7,0.4,1,0.7s0.5,0.7,0.7,1.2s0.3,1.1,0.3,1.7c0,0.6-0.1,1.2-0.3,1.7
			s-0.5,1-0.8,1.4s-0.8,0.7-1.2,0.9s-1,0.3-1.6,0.3c-0.1,0-0.3,0-0.4,0s-0.3,0-0.4,0s-0.3,0-0.4-0.1s-0.3-0.1-0.4-0.1l0,1.2v1.6
			l1.6,0.1v0.6h-3.7V191.6z M302.3,181.6c-0.2,0-0.5,0-0.7,0.1s-0.4,0.1-0.6,0.2s-0.3,0.2-0.5,0.3s-0.2,0.2-0.3,0.3v5.3
			c0,0.1,0.1,0.1,0.2,0.2s0.2,0.1,0.4,0.2s0.3,0.1,0.5,0.1s0.4,0,0.6,0c0.4,0,0.8-0.1,1.1-0.2s0.6-0.4,0.9-0.6s0.4-0.7,0.6-1.1
			s0.2-1,0.2-1.6c0-0.6-0.1-1.1-0.2-1.5s-0.3-0.7-0.5-1s-0.5-0.4-0.8-0.6S302.6,181.6,302.3,181.6z"/>
		<path class="st0" d="M313.5,188.9c-0.2,0-0.4,0-0.5-0.1s-0.2-0.2-0.2-0.4v-0.6c-0.1,0.1-0.3,0.3-0.5,0.4s-0.4,0.3-0.6,0.4
			s-0.5,0.2-0.7,0.3s-0.5,0.1-0.8,0.1c-0.4,0-0.8-0.1-1.1-0.2s-0.5-0.3-0.7-0.6s-0.3-0.6-0.4-1s-0.1-0.8-0.1-1.4v-4.2l-0.8-0.2V181
			l1.6-0.2h0l0.2,0.2v4.7c0,0.4,0,0.8,0.1,1.1s0.1,0.6,0.2,0.8s0.3,0.3,0.5,0.4s0.5,0.1,0.8,0.1c0.2,0,0.5,0,0.7-0.1
			s0.4-0.1,0.6-0.2s0.4-0.2,0.5-0.3s0.3-0.2,0.4-0.3v-5.4l-1.1-0.2V181l1.8-0.2h0l0.3,0.2v7.2h0.9l0,0.5c-0.2,0-0.3,0.1-0.5,0.1
			S313.7,188.9,313.5,188.9z"/>
		<path class="st0" d="M316,188.8v-0.6l1.3-0.1v-10l-1.2-0.1v-0.5l2-0.2h0l0.2,0.2v10.6l1.4,0.1v0.6H316z"/>
		<path class="st0" d="M321,188.4v-1.7h0.7l0.2,1.1c0.1,0.1,0.1,0.1,0.2,0.2s0.2,0.1,0.4,0.2s0.3,0.1,0.5,0.1s0.4,0.1,0.6,0.1
			c0.6,0,1.1-0.1,1.4-0.4s0.4-0.6,0.4-1c0-0.2,0-0.4-0.1-0.6s-0.2-0.3-0.4-0.4s-0.4-0.3-0.7-0.4s-0.6-0.2-0.9-0.4
			c-0.4-0.1-0.7-0.3-1-0.4s-0.5-0.3-0.7-0.5s-0.3-0.4-0.4-0.7s-0.1-0.5-0.1-0.9c0-0.3,0.1-0.6,0.2-0.8s0.3-0.4,0.6-0.6
			s0.5-0.3,0.9-0.4s0.7-0.1,1-0.1c0.3,0,0.5,0,0.8,0.1s0.4,0.1,0.6,0.1s0.3,0.1,0.5,0.1s0.2,0.1,0.3,0.1v1.6h-0.6l-0.2-1.1
			c0-0.1-0.1-0.1-0.2-0.2s-0.2-0.1-0.3-0.1s-0.3-0.1-0.4-0.1s-0.3,0-0.5,0c-0.2,0-0.4,0-0.6,0.1s-0.4,0.1-0.5,0.2s-0.3,0.2-0.4,0.4
			s-0.1,0.3-0.1,0.5c0,0.3,0.1,0.5,0.2,0.7s0.3,0.3,0.4,0.5s0.4,0.2,0.6,0.3s0.5,0.2,0.7,0.3c0.3,0.1,0.6,0.2,0.9,0.4
			s0.6,0.3,0.8,0.5s0.4,0.4,0.5,0.6s0.2,0.5,0.2,0.9s-0.1,0.7-0.2,0.9s-0.3,0.5-0.6,0.7s-0.6,0.3-0.9,0.4s-0.7,0.1-1.2,0.1
			c-0.2,0-0.4,0-0.7-0.1s-0.5-0.1-0.7-0.1s-0.4-0.1-0.6-0.2S321.1,188.4,321,188.4z"/>
		<path class="st0" d="M327.8,186.7c0-0.3,0.1-0.6,0.2-0.9s0.3-0.5,0.5-0.7s0.5-0.4,0.8-0.5s0.6-0.2,1-0.3s0.7-0.1,1.1-0.2
			s0.8-0.1,1.2-0.1v-0.5c0-0.4,0-0.7-0.1-0.9s-0.1-0.5-0.3-0.6s-0.3-0.3-0.5-0.4s-0.5-0.1-0.9-0.1c-0.3,0-0.6,0-0.8,0.1
			s-0.5,0.1-0.8,0.2s-0.4,0.2-0.6,0.3s-0.3,0.2-0.4,0.2h0l-0.3-0.6c0.1-0.1,0.2-0.1,0.4-0.3s0.5-0.2,0.8-0.4s0.6-0.2,1-0.3
			s0.7-0.1,1-0.1c0.5,0,0.9,0,1.2,0.1s0.6,0.3,0.8,0.5s0.3,0.5,0.4,0.8s0.1,0.8,0.1,1.3v4.7h0.9v0.5c-0.1,0-0.2,0-0.3,0.1
			s-0.2,0-0.3,0.1s-0.2,0-0.3,0.1s-0.2,0-0.3,0c-0.1,0-0.2,0-0.2,0s-0.1,0-0.2-0.1s-0.1-0.1-0.1-0.2s0-0.2,0-0.3v-0.6
			c-0.1,0.1-0.2,0.2-0.4,0.3s-0.3,0.3-0.6,0.4s-0.5,0.2-0.7,0.3s-0.5,0.1-0.8,0.1c-0.3,0-0.6,0-0.9-0.1s-0.5-0.2-0.7-0.4
			s-0.4-0.4-0.5-0.7S327.8,187.1,327.8,186.7z M330.5,188.2c0.2,0,0.3,0,0.5-0.1s0.4-0.1,0.5-0.2s0.4-0.2,0.5-0.3s0.3-0.2,0.5-0.3
			v-2.4c-0.6,0-1.1,0.1-1.6,0.1s-0.8,0.2-1.1,0.4s-0.5,0.4-0.7,0.6s-0.2,0.5-0.2,0.8c0,0.3,0,0.5,0.1,0.7s0.2,0.4,0.3,0.5
			s0.3,0.2,0.5,0.3S330.3,188.2,330.5,188.2z"/>
		<path class="st0" d="M335.6,188.8v-0.5l1.1-0.1v-6.3l-1.1-0.2v-0.6l1.7-0.2h0l0.2,0.2v0.5l0,0.8h0c0,0,0.1-0.1,0.2-0.2
			s0.2-0.2,0.3-0.3s0.3-0.2,0.4-0.4s0.3-0.2,0.5-0.3s0.4-0.2,0.7-0.3s0.5-0.1,0.7-0.1c0.1,0,0.2,0,0.2,0s0.1,0,0.2,0v1.1
			c0,0-0.1,0-0.2-0.1s-0.2,0-0.4,0c-0.3,0-0.6,0-0.9,0.1s-0.5,0.1-0.7,0.2s-0.4,0.2-0.6,0.3s-0.3,0.2-0.4,0.3v5.4l1.9,0.1v0.5H335.6
			z"/>
		<path class="st0" d="M346.5,186.7c0-0.3,0.1-0.6,0.2-0.9s0.3-0.5,0.5-0.7s0.5-0.4,0.8-0.5s0.6-0.2,1-0.3s0.7-0.1,1.1-0.2
			s0.8-0.1,1.2-0.1v-0.5c0-0.4,0-0.7-0.1-0.9s-0.1-0.5-0.3-0.6s-0.3-0.3-0.5-0.4s-0.5-0.1-0.9-0.1c-0.3,0-0.6,0-0.8,0.1
			s-0.5,0.1-0.8,0.2s-0.4,0.2-0.6,0.3s-0.3,0.2-0.4,0.2h0l-0.3-0.6c0.1-0.1,0.2-0.1,0.4-0.3s0.5-0.2,0.8-0.4s0.6-0.2,1-0.3
			s0.7-0.1,1-0.1c0.5,0,0.9,0,1.2,0.1s0.6,0.3,0.8,0.5s0.3,0.5,0.4,0.8s0.1,0.8,0.1,1.3v4.7h0.9v0.5c-0.1,0-0.2,0-0.3,0.1
			s-0.2,0-0.3,0.1s-0.2,0-0.3,0.1s-0.2,0-0.3,0c-0.1,0-0.2,0-0.2,0s-0.1,0-0.2-0.1s-0.1-0.1-0.1-0.2s0-0.2,0-0.3v-0.6
			c-0.1,0.1-0.2,0.2-0.4,0.3s-0.3,0.3-0.6,0.4s-0.5,0.2-0.7,0.3s-0.5,0.1-0.8,0.1c-0.3,0-0.6,0-0.9-0.1s-0.5-0.2-0.7-0.4
			s-0.4-0.4-0.5-0.7S346.5,187.1,346.5,186.7z M349.2,188.2c0.2,0,0.3,0,0.5-0.1s0.4-0.1,0.5-0.2s0.4-0.2,0.5-0.3s0.3-0.2,0.5-0.3
			v-2.4c-0.6,0-1.1,0.1-1.6,0.1s-0.8,0.2-1.1,0.4s-0.5,0.4-0.7,0.6s-0.2,0.5-0.2,0.8c0,0.3,0,0.5,0.1,0.7s0.2,0.4,0.3,0.5
			s0.3,0.2,0.5,0.3S348.9,188.2,349.2,188.2z"/>
		<path class="st0" d="M358.8,188.8v-0.6l1.3-0.1v-10l-1.2-0.1v-0.5l2-0.2h0l0.2,0.2v10.6l1.4,0.1v0.6H358.8z"/>
		<path class="st0" d="M363.6,186.7c0-0.3,0.1-0.6,0.2-0.9s0.3-0.5,0.5-0.7s0.5-0.4,0.8-0.5s0.6-0.2,1-0.3s0.7-0.1,1.1-0.2
			s0.8-0.1,1.2-0.1v-0.5c0-0.4,0-0.7-0.1-0.9s-0.1-0.5-0.3-0.6s-0.3-0.3-0.5-0.4s-0.5-0.1-0.9-0.1c-0.3,0-0.6,0-0.8,0.1
			s-0.5,0.1-0.8,0.2s-0.4,0.2-0.6,0.3s-0.3,0.2-0.4,0.2h0l-0.3-0.6c0.1-0.1,0.2-0.1,0.4-0.3s0.5-0.2,0.8-0.4s0.6-0.2,1-0.3
			s0.7-0.1,1-0.1c0.5,0,0.9,0,1.2,0.1s0.6,0.3,0.8,0.5s0.3,0.5,0.4,0.8s0.1,0.8,0.1,1.3v4.7h0.9v0.5c-0.1,0-0.2,0-0.3,0.1
			s-0.2,0-0.3,0.1s-0.2,0-0.3,0.1s-0.2,0-0.3,0c-0.1,0-0.2,0-0.2,0s-0.1,0-0.2-0.1s-0.1-0.1-0.1-0.2s0-0.2,0-0.3v-0.6
			c-0.1,0.1-0.2,0.2-0.4,0.3s-0.3,0.3-0.6,0.4s-0.5,0.2-0.7,0.3s-0.5,0.1-0.8,0.1c-0.3,0-0.6,0-0.9-0.1s-0.5-0.2-0.7-0.4
			s-0.4-0.4-0.5-0.7S363.6,187.1,363.6,186.7z M366.2,188.2c0.2,0,0.3,0,0.5-0.1s0.4-0.1,0.5-0.2s0.4-0.2,0.5-0.3s0.3-0.2,0.5-0.3
			v-2.4c-0.6,0-1.1,0.1-1.6,0.1s-0.8,0.2-1.1,0.4s-0.5,0.4-0.7,0.6s-0.2,0.5-0.2,0.8c0,0.3,0,0.5,0.1,0.7s0.2,0.4,0.3,0.5
			s0.3,0.2,0.5,0.3S366,188.2,366.2,188.2z"/>
		<path class="st0" d="M375.9,188.8v-0.6l1.3-0.1v-6.3l-1.2-0.2v-0.6l1.9-0.2h0l0.2,0.2v7.1l1.3,0.1v0.6H375.9z M377.4,179.4
			c-0.2,0-0.4-0.1-0.5-0.2s-0.2-0.3-0.2-0.5c0-0.1,0-0.2,0-0.3s0.1-0.2,0.1-0.3s0.1-0.1,0.2-0.2s0.2-0.1,0.3-0.1h0
			c0.1,0,0.2,0,0.3,0.1s0.2,0.1,0.2,0.2s0.1,0.2,0.1,0.2s0,0.2,0,0.3c0,0.1,0,0.2,0,0.3s-0.1,0.2-0.1,0.3s-0.1,0.1-0.2,0.2
			S377.5,179.4,377.4,179.4L377.4,179.4z"/>
		<path class="st0" d="M380.6,188.8v-0.6l1-0.1v-6.3l-1.1-0.2v-0.6l1.7-0.2h0l0.2,0.2v0.6l0,0.4c0.2-0.1,0.3-0.3,0.6-0.4
			s0.5-0.3,0.8-0.4s0.5-0.2,0.8-0.3s0.6-0.1,0.8-0.1c0.5,0,0.8,0.1,1.1,0.2s0.5,0.3,0.7,0.6s0.3,0.6,0.3,1s0.1,0.9,0.1,1.5v4
			l1.1,0.1v0.6h-3v-0.6l1-0.1v-4c0-0.4,0-0.8-0.1-1.1s-0.1-0.6-0.2-0.8s-0.3-0.4-0.5-0.5s-0.5-0.2-0.9-0.2c-0.2,0-0.4,0-0.7,0.1
			s-0.4,0.1-0.7,0.2s-0.4,0.2-0.6,0.3s-0.4,0.2-0.5,0.4v5.5l1,0.1v0.6H380.6z"/>
		<path class="st0" d="M389.8,188.8v-0.6l1.3-0.1v-6.3h-1.5v-0.5l1.5-0.3v-0.7c0-0.4,0.1-0.8,0.2-1.2s0.4-0.7,0.7-1s0.6-0.5,0.9-0.7
			s0.7-0.2,1.1-0.2c0.2,0,0.4,0,0.5,0s0.2,0,0.3,0.1v1c-0.1,0-0.2-0.1-0.4-0.1s-0.4-0.1-0.7-0.1c-0.3,0-0.5,0-0.7,0.1
			s-0.4,0.2-0.5,0.3s-0.3,0.3-0.3,0.6s-0.1,0.5-0.1,0.9v1h2.1v0.8H392v6.3l1.6,0.1v0.6H389.8z"/>
		<path class="st0" d="M395.3,188.8v-0.6l1.3-0.1v-10l-1.2-0.1v-0.5l2-0.2h0l0.2,0.2v10.6l1.4,0.1v0.6H395.3z"/>
		<path class="st0" d="M400.1,186.7c0-0.3,0.1-0.6,0.2-0.9s0.3-0.5,0.5-0.7s0.5-0.4,0.8-0.5s0.6-0.2,1-0.3s0.7-0.1,1.1-0.2
			s0.8-0.1,1.2-0.1v-0.5c0-0.4,0-0.7-0.1-0.9s-0.1-0.5-0.3-0.6s-0.3-0.3-0.5-0.4s-0.5-0.1-0.9-0.1c-0.3,0-0.6,0-0.8,0.1
			s-0.5,0.1-0.8,0.2s-0.4,0.2-0.6,0.3s-0.3,0.2-0.4,0.2h0l-0.3-0.6c0.1-0.1,0.2-0.1,0.4-0.3s0.5-0.2,0.8-0.4s0.6-0.2,1-0.3
			s0.7-0.1,1-0.1c0.5,0,0.9,0,1.2,0.1s0.6,0.3,0.8,0.5s0.3,0.5,0.4,0.8s0.1,0.8,0.1,1.3v4.7h0.9v0.5c-0.1,0-0.2,0-0.3,0.1
			s-0.2,0-0.3,0.1s-0.2,0-0.3,0.1s-0.2,0-0.3,0c-0.1,0-0.2,0-0.2,0s-0.1,0-0.2-0.1s-0.1-0.1-0.1-0.2s0-0.2,0-0.3v-0.6
			c-0.1,0.1-0.2,0.2-0.4,0.3s-0.3,0.3-0.6,0.4s-0.5,0.2-0.7,0.3s-0.5,0.1-0.8,0.1c-0.3,0-0.6,0-0.9-0.1s-0.5-0.2-0.7-0.4
			s-0.4-0.4-0.5-0.7S400.1,187.1,400.1,186.7z M402.7,188.2c0.2,0,0.3,0,0.5-0.1s0.4-0.1,0.5-0.2s0.4-0.2,0.5-0.3s0.3-0.2,0.5-0.3
			v-2.4c-0.6,0-1.1,0.1-1.6,0.1s-0.8,0.2-1.1,0.4s-0.5,0.4-0.7,0.6s-0.2,0.5-0.2,0.8c0,0.3,0,0.5,0.1,0.7s0.2,0.4,0.3,0.5
			s0.3,0.2,0.5,0.3S402.5,188.2,402.7,188.2z"/>
		<path class="st0" d="M407.9,185c0-0.5,0.1-1.1,0.2-1.6s0.4-1,0.7-1.3s0.7-0.7,1.2-0.9s1-0.3,1.7-0.3c0.2,0,0.4,0,0.6,0
			s0.4,0.1,0.5,0.1s0.3,0.1,0.5,0.1s0.3,0.1,0.3,0.1l-0.1,1.9H413l-0.3-1.3c-0.1-0.1-0.3-0.2-0.5-0.3s-0.5-0.1-0.8-0.1
			c-0.4,0-0.7,0.1-1,0.2s-0.6,0.4-0.8,0.6s-0.4,0.6-0.5,1s-0.2,0.8-0.2,1.3c0,0.6,0.1,1.1,0.2,1.6s0.3,0.8,0.5,1.1s0.5,0.5,0.8,0.7
			s0.7,0.2,1,0.2c0.2,0,0.4,0,0.6-0.1s0.4-0.1,0.6-0.2s0.4-0.1,0.5-0.2s0.3-0.1,0.4-0.2l0.2,0.4c-0.1,0.1-0.3,0.3-0.5,0.4
			s-0.4,0.2-0.6,0.3s-0.5,0.2-0.7,0.2s-0.5,0.1-0.7,0.1c-0.6,0-1.1-0.1-1.5-0.3s-0.8-0.5-1.1-0.8s-0.5-0.8-0.7-1.3
			S407.9,185.6,407.9,185z"/>
		<path class="st0" d="M414.9,188.8v-0.6l1.3-0.1v-6.3l-1.2-0.2v-0.6l1.9-0.2h0l0.2,0.2v7.1l1.3,0.1v0.6H414.9z M416.5,179.4
			c-0.2,0-0.4-0.1-0.5-0.2s-0.2-0.3-0.2-0.5c0-0.1,0-0.2,0-0.3s0.1-0.2,0.1-0.3s0.1-0.1,0.2-0.2s0.2-0.1,0.3-0.1h0
			c0.1,0,0.2,0,0.3,0.1s0.2,0.1,0.2,0.2s0.1,0.2,0.1,0.2s0,0.2,0,0.3c0,0.1,0,0.2,0,0.3s-0.1,0.2-0.1,0.3s-0.1,0.1-0.2,0.2
			S416.6,179.4,416.5,179.4L416.5,179.4z"/>
		<path class="st0" d="M419.7,184.8c0-0.6,0.1-1.2,0.3-1.7s0.5-0.9,0.8-1.3s0.7-0.6,1.1-0.8s0.9-0.3,1.3-0.3c0.6,0,1.2,0.1,1.6,0.3
			s0.8,0.5,1.1,0.9s0.5,0.8,0.6,1.3c0.1,0.5,0.2,1,0.2,1.6c0,0.6-0.1,1.2-0.3,1.7s-0.5,0.9-0.8,1.3s-0.7,0.6-1.1,0.8
			s-0.9,0.3-1.3,0.3c-0.6,0-1.2-0.1-1.6-0.3s-0.8-0.5-1.1-0.9s-0.5-0.8-0.6-1.3S419.7,185.4,419.7,184.8z M423.1,188.2
			c0.4,0,0.7-0.1,1-0.2s0.5-0.3,0.8-0.6s0.4-0.6,0.5-1s0.2-0.9,0.2-1.4c0-0.5,0-0.9-0.1-1.3s-0.2-0.8-0.4-1.1s-0.4-0.6-0.7-0.8
			s-0.7-0.3-1.1-0.3c-0.4,0-0.7,0.1-1,0.2s-0.5,0.3-0.7,0.6s-0.4,0.6-0.5,1s-0.2,0.9-0.2,1.4c0,0.5,0,0.9,0.1,1.3s0.2,0.8,0.4,1.1
			s0.4,0.6,0.7,0.8S422.7,188.2,423.1,188.2z M422.9,179.5l-0.3-0.3l2.2-2.7h0l0.8,0.7c-0.1,0.1-0.2,0.2-0.3,0.3s-0.3,0.3-0.4,0.4
			s-0.3,0.3-0.5,0.5s-0.4,0.3-0.5,0.5s-0.3,0.3-0.5,0.4S423,179.5,422.9,179.5L422.9,179.5z"/>
		<path class="st0" d="M428.1,188.8v-0.6l1-0.1v-6.3l-1.1-0.2v-0.6l1.7-0.2h0l0.2,0.2v0.6l0,0.4c0.2-0.1,0.3-0.3,0.6-0.4
			s0.5-0.3,0.8-0.4s0.5-0.2,0.8-0.3s0.6-0.1,0.8-0.1c0.5,0,0.8,0.1,1.1,0.2c0.3,0.1,0.5,0.3,0.7,0.6s0.3,0.6,0.3,1
			c0.1,0.4,0.1,0.9,0.1,1.5v4l1.1,0.1v0.6h-3v-0.6l1-0.1v-4c0-0.4,0-0.8-0.1-1.1c0-0.3-0.1-0.6-0.2-0.8s-0.3-0.4-0.5-0.5
			c-0.2-0.1-0.5-0.2-0.9-0.2c-0.2,0-0.4,0-0.7,0.1c-0.2,0.1-0.4,0.1-0.7,0.2s-0.4,0.2-0.6,0.3c-0.2,0.1-0.4,0.2-0.5,0.4v5.5l1,0.1
			v0.6H428.1z"/>
		<path class="st0" d="M233.9,205.8c-0.4,0-0.8-0.1-1.1-0.2s-0.7-0.4-1-0.7s-0.5-0.7-0.7-1.2s-0.3-1.1-0.3-1.7
			c0-0.6,0.1-1.2,0.3-1.7s0.5-1,0.8-1.4s0.8-0.7,1.3-0.9s1-0.3,1.7-0.3c0.3,0,0.6,0,0.8,0.1s0.5,0.1,0.7,0.1v-2.9l-1.5-0.1v-0.5
			l2.2-0.2h0l0.2,0.2V205h0.9v0.5c-0.2,0-0.4,0.1-0.6,0.1s-0.4,0.1-0.7,0.1c-0.1,0-0.2,0-0.2,0s-0.1,0-0.2-0.1s-0.1-0.1-0.1-0.2
			s0-0.2,0-0.3v-0.6c-0.1,0.1-0.3,0.3-0.4,0.4s-0.4,0.3-0.6,0.4s-0.4,0.2-0.7,0.3S234.1,205.8,233.9,205.8z M234.3,204.9
			c0.2,0,0.5,0,0.7-0.1s0.4-0.1,0.6-0.2s0.3-0.2,0.5-0.3s0.3-0.2,0.3-0.3v-5.1c0-0.1-0.1-0.1-0.2-0.2s-0.2-0.1-0.4-0.2
			s-0.3-0.1-0.5-0.1s-0.4,0-0.5,0c-0.4,0-0.8,0.1-1.1,0.2s-0.6,0.3-0.9,0.6s-0.4,0.6-0.6,1.1s-0.2,0.9-0.2,1.5
			c0,0.6,0.1,1.1,0.2,1.5s0.3,0.7,0.5,1s0.5,0.4,0.8,0.6S233.9,204.9,234.3,204.9z"/>
		<path class="st0" d="M245.8,205.7c-0.2,0-0.4,0-0.5-0.1s-0.2-0.2-0.2-0.4v-0.6c-0.1,0.1-0.3,0.3-0.5,0.4s-0.4,0.3-0.6,0.4
			s-0.5,0.2-0.7,0.3s-0.5,0.1-0.8,0.1c-0.4,0-0.8-0.1-1.1-0.2s-0.5-0.3-0.7-0.6s-0.3-0.6-0.4-1s-0.1-0.8-0.1-1.4v-4.2l-0.8-0.2v-0.5
			l1.6-0.2h0l0.2,0.2v4.7c0,0.4,0,0.8,0.1,1.1s0.1,0.6,0.2,0.8s0.3,0.3,0.5,0.4s0.5,0.1,0.8,0.1c0.2,0,0.5,0,0.7-0.1
			s0.4-0.1,0.6-0.2s0.4-0.2,0.5-0.3s0.3-0.2,0.4-0.3v-5.4l-1.1-0.2v-0.5l1.8-0.2h0l0.3,0.2v7.2h0.9l0,0.5c-0.2,0-0.3,0.1-0.5,0.1
			S246,205.7,245.8,205.7z"/>
		<path class="st0" d="M248.4,205.6v-0.5l1.1-0.1v-6.3l-1.1-0.2v-0.6l1.7-0.2h0l0.2,0.2v0.5l0,0.8h0c0,0,0.1-0.1,0.2-0.2
			s0.2-0.2,0.3-0.3s0.3-0.2,0.4-0.4s0.3-0.2,0.5-0.3s0.4-0.2,0.7-0.3s0.5-0.1,0.7-0.1c0.1,0,0.2,0,0.2,0s0.1,0,0.2,0v1.1
			c0,0-0.1,0-0.2-0.1s-0.2,0-0.4,0c-0.3,0-0.6,0-0.9,0.1s-0.5,0.1-0.7,0.2s-0.4,0.2-0.6,0.3s-0.3,0.2-0.4,0.3v5.4l1.9,0.1v0.5H248.4
			z"/>
		<path class="st0" d="M254.7,203.5c0-0.3,0.1-0.6,0.2-0.9s0.3-0.5,0.5-0.7s0.5-0.4,0.8-0.5s0.6-0.2,1-0.3s0.7-0.1,1.1-0.2
			s0.8-0.1,1.2-0.1v-0.5c0-0.4,0-0.7-0.1-0.9s-0.1-0.5-0.3-0.6s-0.3-0.3-0.5-0.4s-0.5-0.1-0.9-0.1c-0.3,0-0.6,0-0.8,0.1
			s-0.5,0.1-0.8,0.2s-0.4,0.2-0.6,0.3s-0.3,0.2-0.4,0.2h0l-0.3-0.6c0.1-0.1,0.2-0.1,0.4-0.3s0.5-0.2,0.8-0.4s0.6-0.2,1-0.3
			s0.7-0.1,1-0.1c0.5,0,0.9,0,1.2,0.1s0.6,0.3,0.8,0.5s0.3,0.5,0.4,0.8s0.1,0.8,0.1,1.3v4.7h0.9v0.5c-0.1,0-0.2,0-0.3,0.1
			s-0.2,0-0.3,0.1s-0.2,0-0.3,0.1s-0.2,0-0.3,0c-0.1,0-0.2,0-0.2,0s-0.1,0-0.2-0.1s-0.1-0.1-0.1-0.2s0-0.2,0-0.3v-0.6
			c-0.1,0.1-0.2,0.2-0.4,0.3s-0.3,0.3-0.6,0.4s-0.5,0.2-0.7,0.3s-0.5,0.1-0.8,0.1c-0.3,0-0.6,0-0.9-0.1s-0.5-0.2-0.7-0.4
			s-0.4-0.4-0.5-0.7S254.7,203.9,254.7,203.5z M257.4,205c0.2,0,0.3,0,0.5-0.1s0.4-0.1,0.5-0.2s0.4-0.2,0.5-0.3s0.3-0.2,0.5-0.3
			v-2.4c-0.6,0-1.1,0.1-1.6,0.1s-0.8,0.2-1.1,0.4s-0.5,0.4-0.7,0.6s-0.2,0.5-0.2,0.8c0,0.3,0,0.5,0.1,0.7s0.2,0.4,0.3,0.5
			s0.3,0.2,0.5,0.3S257.1,205,257.4,205z"/>
		<path class="st0" d="M262.5,205.6V205l1-0.1v-6.3l-1.1-0.2v-0.6l1.7-0.2h0l0.2,0.2v0.6l0,0.4c0.2-0.1,0.3-0.3,0.6-0.4
			s0.5-0.3,0.8-0.4s0.5-0.2,0.8-0.3s0.6-0.1,0.8-0.1c0.5,0,0.8,0.1,1.1,0.2s0.5,0.3,0.7,0.6s0.3,0.6,0.3,1s0.1,0.9,0.1,1.5v4
			l1.1,0.1v0.6h-3V205l1-0.1v-4c0-0.4,0-0.8-0.1-1.1s-0.1-0.6-0.2-0.8s-0.3-0.4-0.5-0.5s-0.5-0.2-0.9-0.2c-0.2,0-0.4,0-0.7,0.1
			s-0.4,0.1-0.7,0.2s-0.4,0.2-0.6,0.3s-0.4,0.2-0.5,0.4v5.5l1,0.1v0.6H262.5z"/>
		<path class="st0" d="M272.6,204.2v-5.6h-1.1v-0.5c0.1,0,0.1,0,0.2,0s0.2,0,0.2,0s0.2,0,0.2-0.1s0.1,0,0.1-0.1
			c0.1,0,0.1-0.1,0.2-0.2s0.1-0.2,0.1-0.3c0-0.1,0.1-0.2,0.1-0.3s0.1-0.3,0.1-0.4s0.1-0.3,0.1-0.4s0.1-0.2,0.1-0.3h0.6v1.8h2.6v0.8
			h-2.6v4.7c0,0.4,0,0.7,0,0.9s0.1,0.4,0.1,0.5s0.2,0.2,0.3,0.2s0.3,0,0.5,0h0c0.1,0,0.3,0,0.5,0s0.3-0.1,0.5-0.1s0.3-0.1,0.4-0.1
			s0.2-0.1,0.3-0.1h0l0.2,0.5c-0.1,0.1-0.2,0.2-0.4,0.2s-0.4,0.2-0.6,0.2s-0.4,0.1-0.7,0.2s-0.4,0.1-0.6,0.1h0c-0.2,0-0.4,0-0.6-0.1
			s-0.3-0.1-0.5-0.2s-0.2-0.3-0.3-0.5S272.6,204.5,272.6,204.2z"/>
		<path class="st0" d="M280.8,205.8c-0.5,0-1-0.1-1.4-0.3s-0.8-0.5-1-0.8s-0.5-0.8-0.6-1.3s-0.2-1-0.2-1.7c0-0.6,0.1-1.1,0.3-1.6
			s0.4-0.9,0.7-1.3s0.7-0.6,1.1-0.8s0.9-0.3,1.4-0.3c0.8,0,1.4,0.2,1.9,0.7s0.7,1.2,0.7,2.1c0,0.3,0,0.5,0,0.7s0,0.4-0.1,0.5h-5.1
			c0,0,0,0.1,0,0.1s0,0.1,0,0.1c0,0.5,0.1,1,0.2,1.4s0.3,0.7,0.6,1s0.5,0.5,0.8,0.6s0.6,0.2,1,0.2c0.2,0,0.4,0,0.6-0.1
			s0.4-0.1,0.6-0.2s0.4-0.1,0.5-0.2s0.3-0.2,0.4-0.3l0.2,0.5c-0.1,0.1-0.3,0.3-0.5,0.4s-0.4,0.2-0.7,0.3s-0.5,0.2-0.8,0.2
			S281,205.8,280.8,205.8z M280.7,198.3c-0.3,0-0.6,0-0.8,0.1s-0.5,0.2-0.7,0.5s-0.4,0.5-0.5,0.8s-0.2,0.7-0.2,1.2h4
			c0-0.1,0-0.2,0-0.3s0-0.2,0-0.3c0-0.3,0-0.6-0.1-0.8s-0.2-0.5-0.3-0.6s-0.3-0.3-0.6-0.4S281.1,198.3,280.7,198.3z"/>
		<path class="st0" d="M292.9,205.8c-0.5,0-1-0.1-1.4-0.3s-0.8-0.5-1-0.8s-0.5-0.8-0.6-1.3s-0.2-1-0.2-1.7c0-0.6,0.1-1.1,0.3-1.6
			s0.4-0.9,0.7-1.3s0.7-0.6,1.1-0.8s0.9-0.3,1.4-0.3c0.8,0,1.4,0.2,1.9,0.7s0.7,1.2,0.7,2.1c0,0.3,0,0.5,0,0.7s0,0.4-0.1,0.5h-5.1
			c0,0,0,0.1,0,0.1s0,0.1,0,0.1c0,0.5,0.1,1,0.2,1.4s0.3,0.7,0.6,1s0.5,0.5,0.8,0.6s0.6,0.2,1,0.2c0.2,0,0.4,0,0.6-0.1
			s0.4-0.1,0.6-0.2s0.4-0.1,0.5-0.2s0.3-0.2,0.4-0.3l0.2,0.5c-0.1,0.1-0.3,0.3-0.5,0.4s-0.4,0.2-0.7,0.3s-0.5,0.2-0.8,0.2
			S293.2,205.8,292.9,205.8z M292.9,198.3c-0.3,0-0.6,0-0.8,0.1s-0.5,0.2-0.7,0.5s-0.4,0.5-0.5,0.8s-0.2,0.7-0.2,1.2h4
			c0-0.1,0-0.2,0-0.3s0-0.2,0-0.3c0-0.3,0-0.6-0.1-0.8s-0.2-0.5-0.3-0.6s-0.3-0.3-0.6-0.4S293.2,198.3,292.9,198.3z"/>
		<path class="st0" d="M297.4,205.2v-1.7h0.7l0.2,1.1c0.1,0.1,0.1,0.1,0.2,0.2s0.2,0.1,0.4,0.2s0.3,0.1,0.5,0.1s0.4,0.1,0.6,0.1
			c0.6,0,1.1-0.1,1.4-0.4s0.4-0.6,0.4-1c0-0.2,0-0.4-0.1-0.6s-0.2-0.3-0.4-0.4s-0.4-0.3-0.7-0.4s-0.6-0.2-0.9-0.4
			c-0.4-0.1-0.7-0.3-1-0.4s-0.5-0.3-0.7-0.5s-0.3-0.4-0.4-0.7s-0.1-0.5-0.1-0.9c0-0.3,0.1-0.6,0.2-0.8s0.3-0.4,0.6-0.6
			s0.5-0.3,0.9-0.4s0.7-0.1,1-0.1c0.3,0,0.5,0,0.8,0.1s0.4,0.1,0.6,0.1s0.3,0.1,0.5,0.1s0.2,0.1,0.3,0.1v1.6h-0.6l-0.2-1.1
			c0-0.1-0.1-0.1-0.2-0.2s-0.2-0.1-0.3-0.1s-0.3-0.1-0.4-0.1s-0.3,0-0.5,0c-0.2,0-0.4,0-0.6,0.1s-0.4,0.1-0.5,0.2s-0.3,0.2-0.4,0.4
			s-0.1,0.3-0.1,0.5c0,0.3,0.1,0.5,0.2,0.7s0.3,0.3,0.4,0.5s0.4,0.2,0.6,0.3s0.5,0.2,0.7,0.3c0.3,0.1,0.6,0.2,0.9,0.4
			s0.6,0.3,0.8,0.5s0.4,0.4,0.5,0.6s0.2,0.5,0.2,0.9s-0.1,0.7-0.2,0.9s-0.3,0.5-0.6,0.7s-0.6,0.3-0.9,0.4s-0.7,0.1-1.2,0.1
			c-0.2,0-0.4,0-0.7-0.1s-0.5-0.1-0.7-0.1s-0.4-0.1-0.6-0.2S297.5,205.2,297.4,205.2z"/>
		<path class="st0" d="M305.1,204.2v-5.6H304v-0.5c0.1,0,0.1,0,0.2,0s0.2,0,0.2,0s0.2,0,0.2-0.1s0.1,0,0.1-0.1
			c0.1,0,0.1-0.1,0.2-0.2s0.1-0.2,0.1-0.3c0-0.1,0.1-0.2,0.1-0.3s0.1-0.3,0.1-0.4s0.1-0.3,0.1-0.4s0.1-0.2,0.1-0.3h0.6v1.8h2.6v0.8
			H306v4.7c0,0.4,0,0.7,0,0.9s0.1,0.4,0.1,0.5s0.2,0.2,0.3,0.2s0.3,0,0.5,0h0c0.1,0,0.3,0,0.5,0s0.3-0.1,0.5-0.1s0.3-0.1,0.4-0.1
			s0.2-0.1,0.3-0.1h0l0.2,0.5c-0.1,0.1-0.2,0.2-0.4,0.2s-0.4,0.2-0.6,0.2s-0.4,0.1-0.7,0.2s-0.4,0.1-0.6,0.1h0c-0.2,0-0.4,0-0.6-0.1
			s-0.3-0.1-0.5-0.2s-0.2-0.3-0.3-0.5S305.1,204.5,305.1,204.2z"/>
		<path class="st0" d="M313.2,205.8c-0.5,0-1-0.1-1.4-0.3s-0.8-0.5-1-0.8s-0.5-0.8-0.6-1.3s-0.2-1-0.2-1.7c0-0.6,0.1-1.1,0.3-1.6
			s0.4-0.9,0.7-1.3s0.7-0.6,1.1-0.8s0.9-0.3,1.4-0.3c0.8,0,1.4,0.2,1.9,0.7s0.7,1.2,0.7,2.1c0,0.3,0,0.5,0,0.7s0,0.4-0.1,0.5h-5.1
			c0,0,0,0.1,0,0.1s0,0.1,0,0.1c0,0.5,0.1,1,0.2,1.4s0.3,0.7,0.6,1s0.5,0.5,0.8,0.6s0.6,0.2,1,0.2c0.2,0,0.4,0,0.6-0.1
			s0.4-0.1,0.6-0.2s0.4-0.1,0.5-0.2s0.3-0.2,0.4-0.3l0.2,0.5c-0.1,0.1-0.3,0.3-0.5,0.4s-0.4,0.2-0.7,0.3s-0.5,0.2-0.8,0.2
			S313.5,205.8,313.2,205.8z M313.1,198.3c-0.3,0-0.6,0-0.8,0.1s-0.5,0.2-0.7,0.5s-0.4,0.5-0.5,0.8s-0.2,0.7-0.2,1.2h4
			c0-0.1,0-0.2,0-0.3s0-0.2,0-0.3c0-0.3,0-0.6-0.1-0.8s-0.2-0.5-0.3-0.6s-0.3-0.3-0.6-0.4S313.5,198.3,313.1,198.3z"/>
		<path class="st0" d="M322,203.5c0-0.3,0.1-0.6,0.2-0.9s0.3-0.5,0.5-0.7s0.5-0.4,0.8-0.5s0.6-0.2,1-0.3s0.7-0.1,1.1-0.2
			s0.8-0.1,1.2-0.1v-0.5c0-0.4,0-0.7-0.1-0.9s-0.1-0.5-0.3-0.6s-0.3-0.3-0.5-0.4s-0.5-0.1-0.9-0.1c-0.3,0-0.6,0-0.8,0.1
			s-0.5,0.1-0.8,0.2s-0.4,0.2-0.6,0.3s-0.3,0.2-0.4,0.2h0l-0.3-0.6c0.1-0.1,0.2-0.1,0.4-0.3s0.5-0.2,0.8-0.4s0.6-0.2,1-0.3
			s0.7-0.1,1-0.1c0.5,0,0.9,0,1.2,0.1s0.6,0.3,0.8,0.5s0.3,0.5,0.4,0.8s0.1,0.8,0.1,1.3v4.7h0.9v0.5c-0.1,0-0.2,0-0.3,0.1
			s-0.2,0-0.3,0.1s-0.2,0-0.3,0.1s-0.2,0-0.3,0c-0.1,0-0.2,0-0.2,0s-0.1,0-0.2-0.1s-0.1-0.1-0.1-0.2s0-0.2,0-0.3v-0.6
			c-0.1,0.1-0.2,0.2-0.4,0.3s-0.3,0.3-0.6,0.4s-0.5,0.2-0.7,0.3s-0.5,0.1-0.8,0.1c-0.3,0-0.6,0-0.9-0.1s-0.5-0.2-0.7-0.4
			s-0.4-0.4-0.5-0.7S322,203.9,322,203.5z M324.7,205c0.2,0,0.3,0,0.5-0.1s0.4-0.1,0.5-0.2s0.4-0.2,0.5-0.3s0.3-0.2,0.5-0.3v-2.4
			c-0.6,0-1.1,0.1-1.6,0.1s-0.8,0.2-1.1,0.4s-0.5,0.4-0.7,0.6s-0.2,0.5-0.2,0.8c0,0.3,0,0.5,0.1,0.7s0.2,0.4,0.3,0.5
			s0.3,0.2,0.5,0.3S324.5,205,324.7,205z"/>
		<path class="st0" d="M329.8,205.6V205l1-0.1v-6.3l-1.1-0.2v-0.6l1.7-0.2h0l0.2,0.2v0.6l0,0.4c0.2-0.1,0.3-0.3,0.6-0.4
			s0.5-0.3,0.8-0.4s0.5-0.2,0.8-0.3s0.6-0.1,0.8-0.1c0.5,0,0.8,0.1,1.1,0.2s0.5,0.3,0.7,0.6s0.3,0.6,0.3,1s0.1,0.9,0.1,1.5v4
			l1.1,0.1v0.6h-3V205l1-0.1v-4c0-0.4,0-0.8-0.1-1.1s-0.1-0.6-0.2-0.8s-0.3-0.4-0.5-0.5s-0.5-0.2-0.9-0.2c-0.2,0-0.4,0-0.7,0.1
			s-0.4,0.1-0.7,0.2s-0.4,0.2-0.6,0.3s-0.4,0.2-0.5,0.4v5.5l1,0.1v0.6H329.8z M331.7,196l-0.5-0.3c0-0.2,0.1-0.3,0.2-0.5
			s0.2-0.3,0.4-0.5s0.4-0.2,0.6-0.3s0.4-0.1,0.7-0.1c0.2,0,0.4,0,0.5,0.1s0.3,0.1,0.4,0.2s0.2,0.2,0.3,0.3s0.2,0.2,0.3,0.3
			s0.2,0.2,0.3,0.2s0.2,0.1,0.4,0.1c0.2,0,0.3,0,0.4-0.1s0.2-0.2,0.3-0.2s0.2-0.2,0.2-0.3s0.1-0.2,0.1-0.3l0.5,0.3
			c-0.1,0.2-0.1,0.4-0.2,0.5s-0.2,0.3-0.4,0.4s-0.3,0.2-0.5,0.3s-0.4,0.1-0.6,0.1c-0.2,0-0.3,0-0.5-0.1s-0.3-0.1-0.4-0.2
			s-0.2-0.2-0.3-0.3s-0.2-0.2-0.3-0.3s-0.2-0.2-0.3-0.2s-0.3-0.1-0.4-0.1c-0.2,0-0.3,0-0.4,0.1s-0.2,0.2-0.3,0.2s-0.2,0.2-0.2,0.3
			S331.7,196,331.7,196z"/>
		<path class="st0" d="M339.1,201.6c0-0.6,0.1-1.2,0.3-1.7s0.5-0.9,0.8-1.3s0.7-0.6,1.1-0.8s0.9-0.3,1.3-0.3c0.6,0,1.2,0.1,1.6,0.3
			s0.8,0.5,1.1,0.9s0.5,0.8,0.6,1.3s0.2,1,0.2,1.6c0,0.6-0.1,1.2-0.3,1.7s-0.5,0.9-0.8,1.3s-0.7,0.6-1.1,0.8s-0.9,0.3-1.3,0.3
			c-0.6,0-1.2-0.1-1.6-0.3s-0.8-0.5-1.1-0.9s-0.5-0.8-0.6-1.3S339.1,202.2,339.1,201.6z M342.6,205c0.4,0,0.7-0.1,1-0.2
			s0.5-0.3,0.8-0.6s0.4-0.6,0.5-1s0.2-0.9,0.2-1.4c0-0.5,0-0.9-0.1-1.3s-0.2-0.8-0.4-1.1s-0.4-0.6-0.7-0.8s-0.7-0.3-1.1-0.3
			c-0.4,0-0.7,0.1-1,0.2s-0.5,0.3-0.7,0.6s-0.4,0.6-0.5,1s-0.2,0.9-0.2,1.4c0,0.5,0,0.9,0.1,1.3s0.2,0.8,0.4,1.1s0.4,0.6,0.7,0.8
			S342.2,205,342.6,205z"/>
		<path class="st0" d="M349.1,205.7c-0.2,0-0.4-0.1-0.5-0.2s-0.2-0.3-0.2-0.5c0-0.1,0-0.2,0.1-0.3s0.1-0.2,0.2-0.3s0.2-0.1,0.3-0.2
			s0.2-0.1,0.3-0.1c0.1,0,0.2,0,0.3,0.1s0.2,0.1,0.2,0.2s0.1,0.1,0.1,0.2s0,0.2,0,0.3c0,0.1,0,0.2-0.1,0.3s-0.1,0.2-0.2,0.3
			s-0.2,0.1-0.3,0.2S349.2,205.7,349.1,205.7z"/>
		<path class="st0" d="M354,205.7c-0.2,0-0.4-0.1-0.5-0.2s-0.2-0.3-0.2-0.5c0-0.1,0-0.2,0.1-0.3s0.1-0.2,0.2-0.3s0.2-0.1,0.3-0.2
			s0.2-0.1,0.3-0.1c0.1,0,0.2,0,0.3,0.1s0.2,0.1,0.2,0.2s0.1,0.1,0.1,0.2s0,0.2,0,0.3c0,0.1,0,0.2-0.1,0.3s-0.1,0.2-0.2,0.3
			s-0.2,0.1-0.3,0.2S354.1,205.7,354,205.7z"/>
		<path class="st0" d="M358.8,205.7c-0.2,0-0.4-0.1-0.5-0.2s-0.2-0.3-0.2-0.5c0-0.1,0-0.2,0.1-0.3s0.1-0.2,0.2-0.3s0.2-0.1,0.3-0.2
			s0.2-0.1,0.3-0.1c0.1,0,0.2,0,0.3,0.1s0.2,0.1,0.2,0.2s0.1,0.1,0.1,0.2s0,0.2,0,0.3c0,0.1,0,0.2-0.1,0.3s-0.1,0.2-0.2,0.3
			s-0.2,0.1-0.3,0.2S358.9,205.7,358.8,205.7z"/>
	</g>
	<g>
		<path d="M33,33.3c0.5,0.6,1.1,1.5,1.2,2.4c0,0.6-0.3,1.1-0.6,1.5c-0.6,0.7-1.8,2.2-2.3,2.7c-0.3,0.4-0.5,0.8-0.5,1.4
			c0,1.6,0.9,2.4,2,2.4c1.2,0,1.8-0.8,1.8-1.6c0-0.4-0.1-0.7-0.2-1c-0.1-0.3,0-0.5,0.2-0.7c0.3-0.3,0.6-0.4,0.9-0.4
			c0.6,0,1.1,0.5,1.1,1.3c0,1.9-2.1,3.1-3.8,3.1c-2.3,0-3.7-1.5-3.7-3.8c0-1.2,0.6-1.9,1.2-2.5c0.8-0.7,1.6-1.6,2.1-2.2
			c0.6-0.6,0.7-1.2,0.3-2.2L33,33.3z M32.8,28.4c0.7,0,1.3,0.6,1.3,1.5c0,0.9-0.6,1.5-1.4,1.5s-1.4-0.6-1.4-1.5
			C31.4,29,31.9,28.4,32.8,28.4L32.8,28.4z"/>
		<path d="M52.4,41.7c-0.6,0.6-1.7,1-2.8,1c-1.3,0-2.7-0.9-4.3-2.3c-0.8-0.7-1.4-1-2.2-1.2c-2.2-0.4-4.8-2.4-4.8-7.4
			c0-4.5,2.2-8.1,6.6-8.1c3.9,0,6.1,3.2,6.1,7.6c0,5.5-2.7,7.5-5,7.9v0.1c0.6,0.3,1.6,0.8,2.4,1.1c1,0.4,2,0.7,2.8,0.8
			c0.4,0,0.8,0,1.1-0.1V41.7z M44.6,24.3c-1.2,0-2.1,0.6-2.8,1.9c-0.6,1.1-1,2.9-1,5.3c0,2.2,0.5,4.3,1.1,5.4
			c0.7,1.2,1.7,1.8,2.9,1.8c1.1,0,1.9-0.5,2.6-1.6c0.6-1.1,1-3.1,1-5.6c0-2.2-0.4-4.1-1-5.3C46.8,25,45.9,24.3,44.6,24.3L44.6,24.3z
			"/>
		<path d="M58.8,28.7c0.7,0,1.6,0,2.2,0c0.7,0,1.2-0.1,1.4-0.1c0,0.7-0.1,1.9-0.1,3.5v2.9c0,1.5,0,2.4,0.1,3c0,0.4,0.2,0.5,1.6,0.5
			l0,0.6c-0.6,0-1.2,0.1-1.9,0.1c-0.7,0.1-1.2,0.1-1.6,0.2c0-0.6,0-1.5-0.1-2.1c-0.7,0.9-2.1,2.1-3.9,2.1c-1.3,0-1.9-0.6-2.2-1
			c-0.2-0.4-0.2-0.8-0.2-1.4c0-1.3,0-3.5,0-5.1c0-1.1,0-1.7,0-2.1c0-0.4-0.2-0.4-1.4-0.4l0.1-0.6c0.7,0,1.5,0,2.1-0.1
			c0.6,0,1.2-0.1,1.5-0.1c-0.1,0.6-0.2,1.9-0.2,4.7c0,2.3,0,3.6,0.1,4.2c0.1,0.5,0.5,0.8,1.1,0.8c1.2,0,2.3-0.9,2.8-2.1
			c0.2-0.6,0.2-0.9,0.2-1.4v-2.5c0-1.1,0-1.8-0.1-2.4c0-0.4-0.3-0.4-1.5-0.4L58.8,28.7z"/>
		<path d="M69.9,39.3c-1.7,0-2.8-0.6-3.5-1.6c-0.6-0.8-1-2.2-1-3.6c0-2.9,1.5-5.7,4.7-5.7c3.2,0,3.8,2.7,3.8,4.1
			c0,0.5-0.1,0.9-0.5,1c-0.5,0.2-1.6,0.3-3,0.3h-2.7c0,1.4,0.3,2.6,0.7,3.2c0.5,0.8,1.2,1.2,2.2,1.2c1.3,0,2.1-0.6,2.7-2.2l0.6,0.3
			C73.2,38.4,71.8,39.3,69.9,39.3z M70,29.1c-1.5,0-2.2,2.1-2.2,4h1.8c0.9,0,1.5,0,1.9-0.1c0.3-0.1,0.5-0.3,0.5-0.9
			C71.9,30.9,71.5,29.1,70,29.1L70,29.1z M68.8,27c0.5-0.7,1.7-3,2.1-3.6c0.4-0.6,0.8-0.8,1.2-0.8c0.4,0,0.7,0.3,0.7,0.8
			c0,0.4-0.3,1-0.7,1.3c-0.5,0.5-1.5,1.4-2.9,2.7L68.8,27z"/>
		<path d="M79.5,43.8c1.4-0.1,1.6-0.2,1.7-0.7c0.1-0.8,0.1-2.1,0.1-4.7V33c0-1.8,0-2.6,0-3.1c0-0.4-0.2-0.5-1.5-0.4l0.1-0.6
			c1.1-0.1,2.3-0.2,3.3-0.4c0,0.5,0.1,1.3,0.1,1.8c1.1-1.1,2.2-1.8,3.5-1.8c1.2,0,2,0.5,2.6,1.3c0.6,0.8,1,2.1,1,3.6
			c0,3.5-1.7,6-4.9,6c-0.8,0-1.7-0.3-2.3-0.7c0,2,0,3.2,0.1,4.4c0,0.6,0.2,0.7,1.8,0.7L85,44.4c-0.6,0-1.5,0-2.8,0
			c-1.3,0-2.2,0.1-2.9,0.1L79.5,43.8z M85.4,38.6c2.1,0,2.8-2.4,2.8-4.9c0-1.2-0.2-2.4-0.7-3.1c-0.4-0.6-0.9-1-1.7-1
			c-1,0-1.8,0.6-2.3,1.5c-0.2,0.3-0.3,0.5-0.3,0.9c0,2.2,0,3.3,0,4.8c0,0.3,0.1,0.5,0.2,0.7C83.9,38.2,84.7,38.6,85.4,38.6
			L85.4,38.6z"/>
		<path d="M97.3,28.4c3.1,0,4.7,2.4,4.7,5.4c0,3.3-1.7,5.6-4.9,5.6c-3.4,0-4.8-2.5-4.8-5.4C92.3,31,94,28.4,97.3,28.4L97.3,28.4z
			 M97.1,29.1c-0.9,0-1.4,0.4-1.8,1.1c-0.4,0.7-0.7,1.9-0.7,3.4c0,1.5,0.3,2.8,0.7,3.6c0.5,0.9,1.2,1.4,2,1.4c0.8,0,1.5-0.4,1.9-1.2
			c0.3-0.7,0.6-1.9,0.6-3.4c0-1.6-0.2-2.8-0.6-3.6C98.7,29.7,98.1,29.1,97.1,29.1L97.1,29.1z"/>
		<path d="M109.4,23.2c1,0,2.9-0.2,3.8-0.3c0,0.9-0.1,2.7-0.1,5.1v6c0,2.2,0,3.2,0.1,3.9c0,0.4,0.2,0.5,0.5,0.5l1.1,0l-0.1,0.7
			c-0.9,0-2.8,0.1-3.6,0.4c0-0.5,0-1.2,0-1.6H111c-1,1-2,1.6-3.2,1.6c-1.3,0-2.3-0.6-3-1.5c-0.6-0.9-1-2.2-1-3.6
			c0-3.1,1.7-5.8,5.1-5.8c1,0,1.7,0.3,2.1,0.6c0-2.5,0-3.8,0-4.7c0-0.5-0.2-0.5-1.7-0.5L109.4,23.2z M106.1,33.8
			c0,1.2,0.2,2.5,0.7,3.2c0.5,0.7,1.2,1.1,1.9,1.1c0.8,0,1.6-0.3,2.1-1.2c0.2-0.3,0.2-0.7,0.2-3.8c0-2.2,0-2.5-0.2-2.8
			c-0.3-0.6-0.8-1.2-1.9-1.2C107,29.2,106.1,31.2,106.1,33.8L106.1,33.8z"/>
		<path d="M117,32.9c0-1.5-0.1-2.5-0.2-3c0-0.2-0.2-0.4-0.5-0.4h-0.9l0-0.6c0.9,0,2.3-0.2,3.1-0.4l0.1,0.1c0.1,0.6,0.2,1.8,0.2,2.2
			h0.1c0.5-1.2,1.3-2.4,2.7-2.4c0.9,0,1.4,0.7,1.4,1.3c0,1-0.7,1.3-1.1,1.3c-0.3,0-0.6-0.1-0.6-0.3c-0.1-0.5-0.3-0.7-0.8-0.7
			c-0.6,0-1.1,0.9-1.4,1.8c-0.1,0.4-0.2,0.8-0.2,1.3c0,2.9,0,4,0,4.5c0,0.6,0.2,0.6,1.9,0.7l-0.1,0.7c-0.8,0-1.9-0.1-2.9-0.1
			c-1,0-1.8,0.1-2.6,0.1l0.1-0.7c1.1,0,1.3-0.2,1.4-0.6c0-0.5,0.1-1.6,0.1-3V32.9z"/>
		<path d="M128.9,39.1c-0.7,0-1.5-0.1-2.6-0.1c-1.1,0-1.8,0.1-2.5,0.1l0-0.7c1.3,0,1.5-0.2,1.5-0.6s0.1-1.4,0.1-2.9v-2.5
			c0-1.2,0-2.1,0-2.4c0-0.3-0.3-0.4-1.5-0.3l0-0.6c1.1-0.1,2.6-0.1,3.6-0.4c0,0.5-0.1,1.8-0.1,3.6v3c0,1.5,0,2.2,0.1,2.8
			c0,0.5,0.2,0.6,1.4,0.6L128.9,39.1z M125.2,27c0.5-0.7,1.7-3,2.1-3.6c0.4-0.6,0.8-0.8,1.2-0.8c0.4,0,0.7,0.3,0.7,0.8
			c0,0.4-0.3,1-0.7,1.3c-0.5,0.5-1.5,1.4-2.9,2.7L125.2,27z"/>
		<path d="M136.2,31.1c0-1.1-0.5-2-1.7-2c-1.3,0-1.8,0.7-1.8,1.6c0,0.3,0,0.5,0.1,0.7c0,0.2,0,0.4-0.2,0.5c-0.2,0.1-0.5,0.2-0.8,0.2
			c-0.5,0-1-0.3-1-1.1c0-1.2,1.6-2.7,4.1-2.7c1.8,0,2.6,0.8,3,1.3c0.2,0.3,0.3,0.8,0.3,1.2c0,0.7,0,4.7,0,6.2c0,0.9,0.3,1.1,0.6,1.1
			c0.4,0,0.7-0.5,0.9-1.4l0.6,0.3c-0.3,1.6-1.2,2.3-2.3,2.3c-1.1,0-1.6-0.7-1.8-1.7c-0.9,1.1-2.1,1.7-3.1,1.7
			c-1.7,0-2.7-1.2-2.7-2.9c0-1,0.4-1.8,1.3-2.2c1.5-0.7,3.7-1.4,4.6-2.1V31.1z M132.6,36.1c0,1.1,0.5,2,1.6,2c1,0,1.6-0.6,2-1.4
			c0.1-0.3,0.1-0.6,0.1-1v-2.8c-0.6,0.4-1.7,0.8-2.5,1.3C133,34.6,132.6,35,132.6,36.1L132.6,36.1z"/>
		<path d="M150.5,39.1c-0.7,0-1.5-0.1-2.6-0.1c-1.1,0-1.8,0.1-2.5,0.1l0-0.7c1.3,0,1.5-0.2,1.5-0.6c0-0.5,0.1-1.4,0.1-2.9v-2.7
			c0-1.2,0-2,0-2.4c0-0.3-0.2-0.4-1.5-0.3l0-0.6c1.1-0.1,2.5-0.1,3.6-0.4c0,0.5-0.1,1.8-0.1,3.6v2.9c0,1.5,0,2.3,0.1,2.8
			c0,0.5,0.3,0.6,1.4,0.6L150.5,39.1z M147.9,23.9c0.7,0,1.2,0.5,1.2,1.3c0,0.7-0.6,1.2-1.3,1.2c-0.6,0-1.1-0.5-1.1-1.2
			C146.6,24.5,147.1,23.9,147.9,23.9L147.9,23.9z"/>
		<path d="M153,32.8c0-1.3,0-2.3-0.1-2.9c0-0.3-0.2-0.4-1.4-0.4l0-0.6c1.1,0,2.3-0.1,3.3-0.3c0,0.4,0.1,1.4,0.1,1.8
			c0.8-0.8,2-1.9,3.6-1.9c1.2,0,1.8,0.5,2.1,0.9c0.2,0.3,0.3,0.6,0.4,0.9c0.8-0.7,1.9-1.8,3.6-1.8c1.3,0,2.1,0.7,2.4,1.3
			c0.2,0.5,0.3,1,0.3,1.5v6.5c0,0.5,0.1,0.6,1.5,0.6l0,0.7c-0.7,0-1.6-0.1-2.6-0.1c-1,0-1.7,0.1-2.3,0.1l0-0.7c1,0,1.2-0.2,1.3-0.6
			c0-0.6,0.1-1.6,0.1-3.4c0-3.2,0-3.5-0.2-3.8c-0.2-0.6-0.7-1-1.5-1c-1,0-1.9,0.6-2.3,1.4c-0.2,0.3-0.2,0.6-0.2,1v3.4
			c0,0.9,0,1.8,0,2.3c0,0.5,0.2,0.6,1.4,0.6l-0.1,0.7c-0.6,0-1.6-0.1-2.5-0.1c-0.9,0-1.7,0.1-2.3,0.1v-0.7c1-0.1,1.2-0.1,1.3-0.7
			c0-0.7,0.1-1.4,0.1-2.9v-2.1c0-1.6,0-1.8-0.2-2.2c-0.2-0.6-0.6-0.9-1.4-0.9c-1,0-1.8,0.6-2.4,1.6c-0.2,0.4-0.2,0.6-0.2,1.1v3.3
			c0,1,0,1.7,0.1,2.2c0,0.5,0.2,0.6,1.3,0.6l-0.1,0.7c-0.6,0-1.7-0.1-2.4-0.1s-1.7,0.1-2.4,0.1v-0.7c1.1,0,1.3-0.1,1.4-0.7
			c0-0.6,0.1-1.5,0.1-2.8V32.8z"/>
		<path d="M169.4,43.8c1.4-0.1,1.6-0.2,1.7-0.7c0.1-0.8,0.1-2.1,0.1-4.7V33c0-1.8,0-2.6,0-3.1c0-0.4-0.2-0.5-1.5-0.4l0.1-0.6
			c1.1-0.1,2.3-0.2,3.3-0.4c0,0.5,0.1,1.3,0.1,1.8c1.1-1.1,2.2-1.8,3.5-1.8c1.2,0,2,0.5,2.6,1.3c0.6,0.8,1,2.1,1,3.6
			c0,3.5-1.7,6-4.9,6c-0.8,0-1.7-0.3-2.3-0.7c0,2,0,3.2,0.1,4.4c0,0.6,0.2,0.7,1.8,0.7l-0.1,0.6c-0.6,0-1.5,0-2.8,0
			c-1.3,0-2.2,0.1-2.9,0.1L169.4,43.8z M175.4,38.6c2.1,0,2.8-2.4,2.8-4.9c0-1.2-0.2-2.4-0.7-3.1c-0.4-0.6-0.9-1-1.7-1
			c-1,0-1.8,0.6-2.3,1.5c-0.2,0.3-0.3,0.5-0.3,0.9c0,2.2,0,3.3,0,4.8c0,0.3,0.1,0.5,0.2,0.7C173.8,38.2,174.6,38.6,175.4,38.6
			L175.4,38.6z"/>
		<path d="M187.8,28.7c0.7,0,1.6,0,2.2,0c0.7,0,1.2-0.1,1.4-0.1c0,0.7-0.1,1.9-0.1,3.5v2.9c0,1.5,0,2.4,0.1,3c0,0.4,0.2,0.5,1.6,0.5
			l0,0.6c-0.6,0-1.2,0.1-1.9,0.1c-0.7,0.1-1.2,0.1-1.6,0.2c0-0.6,0-1.5-0.1-2.1c-0.7,0.9-2.1,2.1-3.9,2.1c-1.3,0-1.9-0.6-2.2-1
			c-0.2-0.4-0.2-0.8-0.2-1.4c0-1.3,0-3.5,0-5.1c0-1.1,0-1.7,0-2.1c0-0.4-0.2-0.4-1.4-0.4l0.1-0.6c0.7,0,1.5,0,2.1-0.1
			c0.6,0,1.2-0.1,1.5-0.1c-0.1,0.6-0.2,1.9-0.2,4.7c0,2.3,0,3.6,0.1,4.2c0.1,0.5,0.5,0.8,1.1,0.8c1.2,0,2.3-0.9,2.8-2.1
			c0.2-0.6,0.2-0.9,0.2-1.4v-2.5c0-1.1,0-1.8-0.1-2.4c0-0.4-0.3-0.4-1.5-0.4L187.8,28.7z"/>
		<path d="M193.5,23.2c1.5,0,2.8-0.2,3.6-0.3c0,0.8-0.1,2.4-0.1,4.7v6.1c0,2.5,0,3.5,0,4.1c0,0.5,0.3,0.6,1.5,0.7l-0.1,0.7
			c-0.8,0-1.9-0.1-2.8-0.1c-1,0-1.8,0.1-2.3,0.1l0-0.7c1.2,0,1.4-0.2,1.5-0.7c0-0.4,0.1-2.1,0.1-4.1v-6c0-2,0-2.7,0-3.3
			c0-0.4-0.2-0.4-1.5-0.4V23.2z"/>
		<path d="M206.1,32.1c-0.1-1.7-1-3-2.4-3c-1,0-1.7,0.6-1.7,1.7c0,0.7,0.3,1.1,0.8,1.4c0.7,0.4,2.2,1,3,1.5c1.1,0.6,1.6,1.4,1.6,2.4
			c0,2.3-2,3.3-4,3.3c-1.2,0-2.4-0.4-3.1-0.7c0-0.5,0.1-2.2,0-3.4l0.6-0.1c0,0.5,0.2,1.3,0.4,1.9c0.4,1,1.3,1.5,2.4,1.5
			c1.2,0,1.9-0.6,1.9-1.7c0-0.5-0.2-1-0.8-1.3c-0.7-0.4-2-1-2.7-1.4c-1.1-0.5-1.7-1.3-1.7-2.6c0-1.9,1.4-3.1,3.4-3.1
			c0.9,0,1.8,0.3,2.1,0.6l0.3-0.8l0.6,0.2c-0.2,1.2-0.2,2.5-0.1,3.6L206.1,32.1z"/>
		<path d="M215,31.1c0-1.1-0.5-2-1.7-2c-1.3,0-1.8,0.7-1.8,1.6c0,0.3,0,0.5,0.1,0.7c0,0.2,0,0.4-0.2,0.5c-0.2,0.1-0.5,0.2-0.8,0.2
			c-0.5,0-1-0.3-1-1.1c0-1.2,1.6-2.7,4.1-2.7c1.8,0,2.6,0.8,3,1.3c0.2,0.3,0.3,0.8,0.3,1.2c0,0.7,0,4.7,0,6.2c0,0.9,0.3,1.1,0.6,1.1
			c0.4,0,0.7-0.5,0.9-1.4l0.6,0.3c-0.3,1.6-1.2,2.3-2.3,2.3c-1.1,0-1.6-0.7-1.8-1.7c-0.9,1.1-2.1,1.7-3.1,1.7
			c-1.7,0-2.7-1.2-2.7-2.9c0-1,0.4-1.8,1.3-2.2c1.5-0.7,3.7-1.4,4.6-2.1V31.1z M211.4,36.1c0,1.1,0.5,2,1.6,2c1,0,1.6-0.6,2-1.4
			c0.1-0.3,0.1-0.6,0.1-1v-2.8c-0.6,0.4-1.7,0.8-2.5,1.3C211.8,34.6,211.4,35,211.4,36.1L211.4,36.1z"/>
		<path d="M221.1,32.9c0-1.5-0.1-2.5-0.2-3c0-0.2-0.2-0.4-0.5-0.4h-0.9l0-0.6c0.9,0,2.3-0.2,3.1-0.4l0.1,0.1
			c0.1,0.6,0.2,1.8,0.2,2.2h0.1c0.5-1.2,1.3-2.4,2.7-2.4c0.9,0,1.4,0.7,1.4,1.3c0,1-0.7,1.3-1.1,1.3c-0.3,0-0.6-0.1-0.6-0.3
			c-0.1-0.5-0.3-0.7-0.8-0.7c-0.6,0-1.1,0.9-1.4,1.8c-0.1,0.4-0.2,0.8-0.2,1.3c0,2.9,0,4,0,4.5c0,0.6,0.2,0.6,1.9,0.7l-0.1,0.7
			c-0.8,0-1.9-0.1-2.9-0.1c-1,0-1.8,0.1-2.6,0.1l0.1-0.7c1.1,0,1.3-0.2,1.4-0.6c0-0.5,0.1-1.6,0.1-3V32.9z"/>
		<path d="M232.4,23.2c1.5,0,2.8-0.2,3.6-0.3c0,0.8-0.1,2.4-0.1,4.7v6.1c0,2.5,0,3.5,0,4.1c0,0.5,0.3,0.6,1.5,0.7l-0.1,0.7
			c-0.8,0-1.9-0.1-2.8-0.1c-1,0-1.8,0.1-2.3,0.1l0-0.7c1.2,0,1.4-0.2,1.5-0.7c0-0.4,0.1-2.1,0.1-4.1v-6c0-2,0-2.7,0-3.3
			c0-0.4-0.2-0.4-1.5-0.4V23.2z"/>
		<path d="M244.8,31.1c0-1.1-0.5-2-1.7-2c-1.3,0-1.8,0.7-1.8,1.6c0,0.3,0,0.5,0.1,0.7c0,0.2,0,0.4-0.2,0.5c-0.2,0.1-0.5,0.2-0.8,0.2
			c-0.5,0-1-0.3-1-1.1c0-1.2,1.6-2.7,4.1-2.7c1.8,0,2.6,0.8,3,1.3c0.2,0.3,0.3,0.8,0.3,1.2c0,0.7,0,4.7,0,6.2c0,0.9,0.3,1.1,0.6,1.1
			c0.4,0,0.7-0.5,0.9-1.4l0.6,0.3c-0.3,1.6-1.2,2.3-2.3,2.3c-1.1,0-1.6-0.7-1.8-1.7c-0.9,1.1-2.1,1.7-3.1,1.7
			c-1.7,0-2.7-1.2-2.7-2.9c0-1,0.4-1.8,1.3-2.2c1.5-0.7,3.7-1.4,4.6-2.1V31.1z M241.1,36.1c0,1.1,0.5,2,1.6,2c1,0,1.6-0.6,2-1.4
			c0.1-0.3,0.1-0.6,0.1-1v-2.8c-0.6,0.4-1.7,0.8-2.5,1.3C241.6,34.6,241.1,35,241.1,36.1L241.1,36.1z"/>
		<path d="M259,39.1c-0.7,0-1.5-0.1-2.6-0.1c-1.1,0-1.8,0.1-2.5,0.1l0-0.7c1.3,0,1.5-0.2,1.5-0.6c0-0.5,0.1-1.4,0.1-2.9v-2.7
			c0-1.2,0-2,0-2.4c0-0.3-0.2-0.4-1.5-0.3l0-0.6c1.1-0.1,2.5-0.1,3.6-0.4c0,0.5-0.1,1.8-0.1,3.6v2.9c0,1.5,0,2.3,0.1,2.8
			c0,0.5,0.3,0.6,1.4,0.6L259,39.1z M256.5,23.9c0.7,0,1.2,0.5,1.2,1.3c0,0.7-0.6,1.2-1.3,1.2c-0.6,0-1.1-0.5-1.1-1.2
			C255.2,24.5,255.7,23.9,256.5,23.9L256.5,23.9z"/>
		<path d="M260.1,38.4c1.2,0,1.3-0.1,1.4-0.7c0-0.7,0.1-1.6,0.1-2.6v-2.3c0-1.3,0-2.3,0-2.9c0-0.3-0.2-0.4-1.4-0.4l0-0.6
			c1.1,0,2.3-0.1,3.3-0.3c0.1,0.4,0.1,1.3,0.2,1.7c0.8-0.8,1.9-1.8,3.4-1.8c1.4,0,2.2,0.7,2.5,1.4c0.2,0.4,0.3,0.9,0.3,1.4v6.5
			c0,0.5,0.1,0.6,1.5,0.6l0,0.7c-0.7,0-1.6-0.1-2.6-0.1c-1,0-1.8,0.1-2.3,0.1l0-0.7c1,0,1.2-0.2,1.3-0.6c0-0.5,0.1-1.6,0.1-3.4
			c0-3.2,0-3.4-0.2-3.8c-0.3-0.6-0.7-0.9-1.5-0.9c-1,0-1.8,0.6-2.3,1.4c-0.2,0.3-0.2,0.7-0.2,1.2v3c0,0.9,0,1.9,0,2.5
			c0,0.5,0.2,0.6,1.4,0.6l0,0.7c-0.6,0-1.7-0.1-2.5-0.1c-0.9,0-1.7,0.1-2.3,0.1V38.4z"/>
		<path d="M273.9,28.8v-0.6c0-1.8,0.4-3,1.4-4c0.7-0.7,1.8-1.2,3.2-1.2c1,0,1.7,0.2,2.1,0.6c0.5-0.1,1.2-0.3,1.8-0.4
			c0,0.8-0.1,2.5-0.1,5.3v5.3c0,2.6,0,3.6,0,4.2c0,0.5,0.2,0.6,1.6,0.6l0,0.7c-0.9,0-2.1-0.1-3-0.1c-1,0-1.7,0.1-2.2,0.1v-0.7
			c1.3,0,1.5-0.2,1.5-0.7c0-0.4,0.1-2.3,0.1-4.4c0-2.2,0-4.6,0-6.6c0-1-0.1-1.7-0.2-2.1c-0.2-0.5-0.8-1.1-1.9-1.1
			c-0.9,0-1.6,0.5-1.9,1.5c-0.3,0.8-0.4,1.9-0.4,3.7h2.5l-0.2,0.7l-2.4,0.1c0,1.2,0,2.6,0,4.2c0,1.7,0,3.2,0,3.8
			c0,0.6,0.3,0.7,1.6,0.8l-0.1,0.7c-0.7,0-1.6-0.1-2.5-0.1c-1.1,0-2,0.1-2.8,0.1l0-0.7c1.3,0,1.5-0.1,1.5-0.6
			c0.1-0.5,0.1-2.4,0.1-4.1v-4.2l-1.7-0.1l0.1-0.7H273.9z"/>
		<path d="M291.1,31.1c0-1.1-0.5-2-1.7-2c-1.3,0-1.8,0.7-1.8,1.6c0,0.3,0,0.5,0.1,0.7c0,0.2,0,0.4-0.2,0.5c-0.2,0.1-0.5,0.2-0.8,0.2
			c-0.5,0-1-0.3-1-1.1c0-1.2,1.6-2.7,4.1-2.7c1.8,0,2.6,0.8,3,1.3c0.2,0.3,0.3,0.8,0.3,1.2c0,0.7,0,4.7,0,6.2c0,0.9,0.3,1.1,0.6,1.1
			c0.4,0,0.7-0.5,0.9-1.4l0.6,0.3c-0.3,1.6-1.2,2.3-2.3,2.3c-1.1,0-1.6-0.7-1.8-1.7c-0.9,1.1-2.1,1.7-3.1,1.7
			c-1.7,0-2.7-1.2-2.7-2.9c0-1,0.4-1.8,1.3-2.2c1.5-0.7,3.7-1.4,4.6-2.1V31.1z M287.5,36.1c0,1.1,0.5,2,1.6,2c1,0,1.6-0.6,2-1.4
			c0.1-0.3,0.1-0.6,0.1-1v-2.8c-0.6,0.4-1.7,0.8-2.5,1.3C287.9,34.6,287.5,35,287.5,36.1L287.5,36.1z"/>
		<path d="M304.6,36.2c-0.6,1.9-1.9,3.1-4,3.1c-1.6,0-2.7-0.5-3.5-1.5c-0.6-0.8-1-2.1-1-3.8c0-3,1.8-5.6,5.1-5.6c2,0,3.4,1,3.4,2.5
			c0,0.8-0.5,1.2-1.2,1.2c-0.2,0-0.4-0.1-0.6-0.2c-0.1-0.1-0.2-0.3-0.2-0.5c0-0.2,0.1-0.5,0.1-0.7c0-1-0.5-1.6-1.7-1.6
			c-1.8,0-2.7,2.1-2.7,4.7c0,1.2,0.2,2.4,0.6,3.1c0.5,0.9,1.3,1.4,2.3,1.4c1.4,0,2.2-0.7,2.8-2.3L304.6,36.2z"/>
		<path d="M310.8,39.1c-0.7,0-1.5-0.1-2.6-0.1c-1.1,0-1.8,0.1-2.5,0.1l0-0.7c1.3,0,1.5-0.2,1.5-0.6c0-0.5,0.1-1.4,0.1-2.9v-2.7
			c0-1.2,0-2,0-2.4c0-0.3-0.2-0.4-1.5-0.3l0-0.6c1.1-0.1,2.5-0.1,3.6-0.4c0,0.5-0.1,1.8-0.1,3.6v2.9c0,1.5,0,2.3,0.1,2.8
			c0,0.5,0.3,0.6,1.4,0.6L310.8,39.1z M308.2,23.9c0.7,0,1.2,0.5,1.2,1.3c0,0.7-0.6,1.2-1.3,1.2c-0.6,0-1.1-0.5-1.1-1.2
			C306.9,24.5,307.4,23.9,308.2,23.9L308.2,23.9z"/>
		<path d="M317.1,28.4c3.1,0,4.7,2.4,4.7,5.4c0,3.3-1.7,5.6-4.9,5.6c-3.4,0-4.8-2.5-4.8-5.4C312.1,31,313.8,28.4,317.1,28.4
			L317.1,28.4z M316.9,29.1c-0.9,0-1.4,0.4-1.8,1.1c-0.4,0.7-0.7,1.9-0.7,3.4c0,1.5,0.3,2.8,0.7,3.6c0.5,0.9,1.2,1.4,2,1.4
			s1.5-0.4,1.9-1.2c0.3-0.7,0.6-1.9,0.6-3.4c0-1.6-0.2-2.8-0.6-3.6C318.5,29.7,317.8,29.1,316.9,29.1L316.9,29.1z M315.9,27
			c0.5-0.7,1.7-3,2.1-3.6c0.4-0.6,0.8-0.8,1.2-0.8c0.4,0,0.7,0.3,0.7,0.8c0,0.4-0.3,1-0.7,1.3c-0.5,0.5-1.5,1.4-2.9,2.7L315.9,27z"
			/>
		<path d="M323.3,38.4c1.2,0,1.3-0.1,1.4-0.7c0-0.7,0.1-1.6,0.1-2.6v-2.3c0-1.3,0-2.3,0-2.9c0-0.3-0.2-0.4-1.4-0.4l0-0.6
			c1.1,0,2.3-0.1,3.3-0.3c0.1,0.4,0.1,1.3,0.2,1.7c0.8-0.8,1.9-1.8,3.4-1.8c1.4,0,2.2,0.7,2.5,1.4c0.2,0.4,0.3,0.9,0.3,1.4v6.5
			c0,0.5,0.1,0.6,1.5,0.6l0,0.7c-0.7,0-1.6-0.1-2.6-0.1c-1,0-1.8,0.1-2.3,0.1l0-0.7c1,0,1.2-0.2,1.3-0.6c0-0.5,0.1-1.6,0.1-3.4
			c0-3.2,0-3.4-0.2-3.8c-0.3-0.6-0.7-0.9-1.5-0.9c-1,0-1.8,0.6-2.3,1.4c-0.2,0.3-0.2,0.7-0.2,1.2v3c0,0.9,0,1.9,0,2.5
			c0,0.5,0.2,0.6,1.4,0.6l0,0.7c-0.6,0-1.7-0.1-2.5-0.1c-0.9,0-1.7,0.1-2.3,0.1V38.4z"/>
		<path d="M346.4,31.1c0-1.1-0.5-2-1.7-2c-1.3,0-1.8,0.7-1.8,1.6c0,0.3,0,0.5,0.1,0.7c0,0.2,0,0.4-0.2,0.5c-0.2,0.1-0.5,0.2-0.8,0.2
			c-0.5,0-1-0.3-1-1.1c0-1.2,1.6-2.7,4.1-2.7c1.8,0,2.6,0.8,3,1.3c0.2,0.3,0.3,0.8,0.3,1.2c0,0.7,0,4.7,0,6.2c0,0.9,0.3,1.1,0.6,1.1
			c0.4,0,0.7-0.5,0.9-1.4l0.6,0.3c-0.3,1.6-1.2,2.3-2.3,2.3c-1.1,0-1.6-0.7-1.8-1.7c-0.9,1.1-2.1,1.7-3.1,1.7
			c-1.7,0-2.7-1.2-2.7-2.9c0-1,0.4-1.8,1.3-2.2c1.5-0.7,3.7-1.4,4.6-2.1V31.1z M342.7,36.1c0,1.1,0.5,2,1.6,2c1,0,1.6-0.6,2-1.4
			c0.1-0.3,0.1-0.6,0.1-1v-2.8c-0.6,0.4-1.7,0.8-2.5,1.3C343.2,34.6,342.7,35,342.7,36.1L342.7,36.1z"/>
		<path d="M350.6,23.2c1.5,0,2.8-0.2,3.6-0.3c0,0.8-0.1,2.4-0.1,4.7v6.1c0,2.5,0,3.5,0,4.1c0,0.5,0.3,0.6,1.5,0.7l-0.1,0.7
			c-0.8,0-1.9-0.1-2.8-0.1c-1,0-1.8,0.1-2.3,0.1l0-0.7c1.2,0,1.4-0.2,1.5-0.7c0-0.4,0.1-2.1,0.1-4.1v-6c0-2,0-2.7,0-3.3
			c0-0.4-0.2-0.4-1.5-0.4V23.2z"/>
		<path d="M367.5,31.1c0-1.1-0.5-2-1.7-2c-1.3,0-1.8,0.7-1.8,1.6c0,0.3,0,0.5,0.1,0.7c0,0.2,0,0.4-0.2,0.5c-0.2,0.1-0.5,0.2-0.8,0.2
			c-0.5,0-1-0.3-1-1.1c0-1.2,1.6-2.7,4.1-2.7c1.8,0,2.6,0.8,3,1.3c0.2,0.3,0.3,0.8,0.3,1.2c0,0.7,0,4.7,0,6.2c0,0.9,0.3,1.1,0.6,1.1
			c0.4,0,0.7-0.5,0.9-1.4l0.6,0.3c-0.3,1.6-1.2,2.3-2.3,2.3c-1.1,0-1.6-0.7-1.8-1.7c-0.9,1.1-2.1,1.7-3.1,1.7
			c-1.7,0-2.7-1.2-2.7-2.9c0-1,0.4-1.8,1.3-2.2c1.5-0.7,3.7-1.4,4.6-2.1V31.1z M363.9,36.1c0,1.1,0.5,2,1.6,2c1,0,1.6-0.6,2-1.4
			c0.1-0.3,0.1-0.6,0.1-1v-2.8c-0.6,0.4-1.7,0.8-2.5,1.3C364.4,34.6,363.9,35,363.9,36.1L363.9,36.1z"/>
		<path d="M371.8,23.2c1.5,0,2.8-0.2,3.6-0.3c0,0.8-0.1,2.4-0.1,4.7v6.1c0,2.5,0,3.5,0,4.1c0,0.5,0.3,0.6,1.5,0.7l-0.1,0.7
			c-0.8,0-1.9-0.1-2.8-0.1c-1,0-1.8,0.1-2.3,0.1l0-0.7c1.2,0,1.4-0.2,1.5-0.7c0-0.4,0.1-2.1,0.1-4.1v-6c0-2,0-2.7,0-3.3
			c0-0.4-0.2-0.4-1.5-0.4V23.2z"/>
		<path d="M378.6,32.3c0.1-0.9,0.3-2.5,0.2-3.8c0.4,0.2,1.2,0.2,2.4,0.2h1.9c1.7,0,2.5,0,3.3,0c-0.1,0.5-0.3,0.9-0.5,1.4
			c-0.5,0.8-3.8,6.3-5,8.2c1.7,0,2.8,0,3.4-0.1c1-0.1,1.4-0.7,1.9-3l0.6,0.1c-0.2,1-0.3,2.8-0.4,3.8c-0.8-0.1-3.5-0.1-5.8-0.1
			c-1.2,0-1.8,0-2.3,0l-0.3-0.4c2.3-3,5.1-7.8,5.7-9.1c-0.9,0-1.8,0-2.6,0.1c-0.9,0.1-1.3,0.3-1.5,1c-0.2,0.6-0.3,1.1-0.5,1.7
			L378.6,32.3z"/>
		<path d="M394.3,31.1c0-1.1-0.5-2-1.7-2c-1.3,0-1.8,0.7-1.8,1.6c0,0.3,0,0.5,0.1,0.7c0,0.2,0,0.4-0.2,0.5c-0.2,0.1-0.5,0.2-0.8,0.2
			c-0.5,0-1-0.3-1-1.1c0-1.2,1.6-2.7,4.1-2.7c1.8,0,2.6,0.8,3,1.3c0.2,0.3,0.3,0.8,0.3,1.2c0,0.7,0,4.7,0,6.2c0,0.9,0.3,1.1,0.6,1.1
			c0.4,0,0.7-0.5,0.9-1.4l0.6,0.3c-0.3,1.6-1.2,2.3-2.3,2.3c-1.1,0-1.6-0.7-1.8-1.7c-0.9,1.1-2.1,1.7-3.1,1.7
			c-1.7,0-2.7-1.2-2.7-2.9c0-1,0.4-1.8,1.3-2.2c1.5-0.7,3.7-1.4,4.6-2.1V31.1z M390.6,36.1c0,1.1,0.5,2,1.6,2c1,0,1.6-0.6,2-1.4
			c0.1-0.3,0.1-0.6,0.1-1v-2.8c-0.6,0.4-1.7,0.8-2.5,1.3C391.1,34.6,390.6,35,390.6,36.1L390.6,36.1z"/>
		<path d="M402.6,34.3c-0.5-0.6-1.1-1.5-1.2-2.3c0-0.6,0.3-1.1,0.6-1.5c0.6-0.7,1.8-2.2,2.3-2.7c0.3-0.4,0.5-0.8,0.5-1.4
			c0-1.6-0.9-2.4-2-2.4c-1.2,0-1.8,0.8-1.8,1.6c0,0.4,0.1,0.7,0.2,1c0.1,0.3,0,0.5-0.2,0.7c-0.3,0.3-0.6,0.4-0.9,0.4
			c-0.6,0-1.1-0.5-1.1-1.3c0-1.9,2.1-3.1,3.8-3.1c2.3,0,3.7,1.5,3.7,3.9c0,1.2-0.6,1.9-1.2,2.5c-0.8,0.8-1.6,1.6-2.1,2.2
			c-0.6,0.7-0.7,1.2-0.3,2.2L402.6,34.3z M402.8,39.3c-0.7,0-1.3-0.6-1.3-1.5c0-0.9,0.6-1.5,1.4-1.5s1.4,0.6,1.4,1.5
			C404.2,38.7,403.6,39.3,402.8,39.3L402.8,39.3z"/>
	</g>
	<line class="st1" x1="28.5" y1="268" x2="28.5" y2="146"/>
	<line class="st1" x1="28.5" y1="146" x2="25.5" y2="158.5"/>
	<line class="st1" x1="28.8" y1="146" x2="31.7" y2="157"/>
	<g>
		<path class="st0" d="M22.8,247.2H26v1.2h-8.6v-2.5c0-0.5,0.1-1,0.2-1.4c0.1-0.4,0.3-0.7,0.5-1c0.2-0.3,0.5-0.5,0.8-0.6
			c0.3-0.1,0.7-0.2,1.1-0.2c0.4,0,0.8,0.1,1.1,0.2s0.6,0.3,0.9,0.6c0.2,0.3,0.4,0.6,0.6,1c0.1,0.4,0.2,0.9,0.2,1.4V247.2z
			 M21.9,247.2v-1.4c0-0.3,0-0.6-0.1-0.9s-0.2-0.5-0.4-0.6c-0.2-0.2-0.3-0.3-0.6-0.4c-0.2-0.1-0.5-0.1-0.7-0.1c-0.5,0-1,0.2-1.3,0.5
			c-0.3,0.3-0.5,0.9-0.5,1.5v1.4H21.9z"/>
		<path class="st0" d="M26,241.6h-6.1V241c0-0.1,0-0.2,0.1-0.2c0,0,0.1-0.1,0.2-0.1l0.9-0.1c-0.4-0.2-0.7-0.4-1-0.7
			c-0.2-0.3-0.4-0.6-0.4-1c0-0.1,0-0.3,0-0.4s0.1-0.2,0.1-0.3l0.8,0.1c0.1,0,0.1,0.1,0.1,0.2c0,0.1,0,0.1,0,0.2c0,0.1,0,0.2,0,0.4
			c0,0.2,0,0.4,0.1,0.5c0.1,0.2,0.1,0.3,0.3,0.4c0.1,0.1,0.2,0.2,0.4,0.3c0.2,0.1,0.3,0.2,0.6,0.3H26V241.6z"/>
		<path class="st0" d="M19.8,235c0-0.4,0.1-0.7,0.2-1c0.1-0.3,0.3-0.6,0.5-0.8c0.2-0.2,0.5-0.4,0.9-0.5s0.7-0.2,1.2-0.2
			c0.2,0,0.3,0,0.3,0.1c0.1,0,0.1,0.1,0.1,0.2v4.1c0.4,0,0.7-0.1,1-0.2c0.3-0.1,0.5-0.2,0.7-0.4c0.2-0.2,0.3-0.4,0.4-0.6
			c0.1-0.2,0.1-0.5,0.1-0.8c0-0.3,0-0.5-0.1-0.7c-0.1-0.2-0.1-0.4-0.2-0.5c-0.1-0.1-0.1-0.3-0.2-0.4c-0.1-0.1-0.1-0.2-0.1-0.2
			c0-0.1,0-0.2,0.1-0.2l0.4-0.3c0.2,0.1,0.3,0.3,0.4,0.5c0.1,0.2,0.2,0.4,0.3,0.6c0.1,0.2,0.1,0.4,0.2,0.7c0,0.2,0.1,0.4,0.1,0.7
			c0,0.4-0.1,0.8-0.2,1.2c-0.1,0.4-0.4,0.7-0.6,0.9c-0.3,0.3-0.6,0.5-1,0.6c-0.4,0.1-0.9,0.2-1.4,0.2c-0.4,0-0.8-0.1-1.2-0.2
			c-0.4-0.1-0.7-0.3-1-0.6s-0.5-0.5-0.6-0.9C19.9,235.8,19.8,235.4,19.8,235z M20.6,234.9c0,0.5,0.1,0.9,0.4,1.2s0.7,0.5,1.2,0.6
			v-3.3c-0.2,0-0.5,0-0.7,0.1c-0.2,0.1-0.4,0.2-0.5,0.3s-0.3,0.3-0.3,0.5C20.7,234.5,20.6,234.7,20.6,234.9z"/>
		<path class="st0" d="M20.9,227.6c0.1,0,0.1,0.1,0.1,0.2c0,0.1,0,0.1-0.1,0.2c0,0.1-0.1,0.2-0.1,0.3c-0.1,0.1-0.1,0.2-0.1,0.4
			c0,0.2-0.1,0.3-0.1,0.5c0,0.2,0,0.3,0.1,0.5c0,0.1,0.1,0.3,0.2,0.4c0.1,0.1,0.2,0.2,0.3,0.2s0.2,0.1,0.3,0.1c0.2,0,0.3,0,0.4-0.1
			s0.2-0.2,0.3-0.4c0.1-0.1,0.1-0.3,0.2-0.5c0.1-0.2,0.1-0.4,0.2-0.6c0.1-0.2,0.1-0.4,0.2-0.6c0.1-0.2,0.2-0.4,0.3-0.5
			c0.1-0.1,0.3-0.3,0.4-0.4c0.2-0.1,0.4-0.1,0.6-0.1c0.3,0,0.5,0,0.8,0.1c0.2,0.1,0.4,0.2,0.6,0.4c0.2,0.2,0.3,0.4,0.4,0.7
			c0.1,0.3,0.2,0.6,0.2,1c0,0.4-0.1,0.8-0.2,1.2c-0.1,0.3-0.3,0.6-0.5,0.9l-0.4-0.3c-0.1,0-0.1-0.1-0.1-0.1s0-0.1,0-0.2
			c0-0.1,0-0.1,0.1-0.2s0.1-0.2,0.2-0.3s0.1-0.3,0.2-0.4s0.1-0.4,0.1-0.6c0-0.2,0-0.4-0.1-0.5c-0.1-0.2-0.1-0.3-0.2-0.4
			c-0.1-0.1-0.2-0.2-0.3-0.2c-0.1,0-0.2-0.1-0.4-0.1c-0.2,0-0.3,0-0.4,0.1c-0.1,0.1-0.2,0.2-0.3,0.4c-0.1,0.1-0.1,0.3-0.2,0.5
			c-0.1,0.2-0.1,0.4-0.2,0.6c-0.1,0.2-0.1,0.4-0.2,0.6c-0.1,0.2-0.2,0.4-0.3,0.5c-0.1,0.1-0.3,0.3-0.5,0.4s-0.4,0.1-0.7,0.1
			c-0.2,0-0.5,0-0.7-0.1c-0.2-0.1-0.4-0.2-0.6-0.4s-0.3-0.4-0.4-0.7c-0.1-0.3-0.1-0.6-0.1-0.9c0-0.4,0.1-0.8,0.2-1.1
			c0.1-0.3,0.3-0.6,0.5-0.8L20.9,227.6z"/>
		<path class="st0" d="M18,224.6c0.1,0,0.2,0,0.3,0.1c0.1,0,0.2,0.1,0.2,0.2c0.1,0.1,0.1,0.2,0.2,0.2c0,0.1,0.1,0.2,0.1,0.3
			c0,0.1,0,0.2-0.1,0.3s-0.1,0.2-0.2,0.2c-0.1,0.1-0.1,0.1-0.2,0.2c-0.1,0-0.2,0.1-0.3,0.1s-0.2,0-0.3-0.1c-0.1,0-0.2-0.1-0.2-0.2
			c-0.1-0.1-0.1-0.1-0.2-0.2s-0.1-0.2-0.1-0.3c0-0.1,0-0.2,0.1-0.3c0-0.1,0.1-0.2,0.2-0.2c0.1-0.1,0.2-0.1,0.2-0.2
			C17.8,224.6,17.9,224.6,18,224.6z M19.9,224.8H26v1.1h-6.1V224.8z"/>
		<path class="st0" d="M17.3,218.7l1.5,1.4c0.1,0.1,0.1,0.1,0.1,0.2c0,0.1,0,0.1,0,0.2v0.6l-1.5-0.9c-0.1-0.1-0.2-0.1-0.2-0.2
			c0-0.1-0.1-0.2-0.1-0.3V218.7z M19.8,220.5c0-0.4,0.1-0.8,0.2-1.2c0.1-0.4,0.4-0.7,0.6-0.9c0.3-0.3,0.6-0.4,1-0.6
			c0.4-0.1,0.8-0.2,1.3-0.2c0.5,0,0.9,0.1,1.3,0.2c0.4,0.1,0.7,0.3,1,0.6c0.3,0.3,0.5,0.6,0.6,0.9c0.1,0.4,0.2,0.8,0.2,1.2
			c0,0.4-0.1,0.9-0.2,1.2c-0.1,0.4-0.4,0.7-0.6,0.9c-0.3,0.3-0.6,0.4-1,0.6c-0.4,0.1-0.8,0.2-1.3,0.2c-0.5,0-0.9-0.1-1.3-0.2
			s-0.7-0.3-1-0.6s-0.5-0.6-0.6-0.9C19.9,221.3,19.8,220.9,19.8,220.5z M25.3,220.5c0-0.6-0.2-1-0.6-1.3s-1-0.4-1.7-0.4
			c-0.7,0-1.3,0.1-1.7,0.4c-0.4,0.3-0.6,0.7-0.6,1.3c0,0.3,0.1,0.6,0.2,0.8c0.1,0.2,0.3,0.4,0.5,0.6c0.2,0.1,0.4,0.3,0.7,0.3
			s0.6,0.1,1,0.1c0.7,0,1.3-0.1,1.7-0.4S25.3,221.1,25.3,220.5z"/>
		<path class="st0" d="M26,216.2h-6.1v-0.6c0-0.2,0.1-0.2,0.2-0.3l0.7-0.1c-0.3-0.3-0.5-0.6-0.7-0.9c-0.2-0.3-0.3-0.7-0.3-1.1
			c0-0.3,0.1-0.6,0.2-0.9c0.1-0.3,0.3-0.5,0.5-0.6s0.4-0.3,0.7-0.4s0.6-0.1,0.9-0.1H26v1.1h-3.9c-0.5,0-0.8,0.1-1.1,0.3
			c-0.3,0.2-0.4,0.5-0.4,1c0,0.3,0.1,0.6,0.2,0.9c0.2,0.3,0.4,0.5,0.6,0.8H26V216.2z"/>
		<path class="st0" d="M26,202.6c0,0.1,0,0.2-0.1,0.2c0,0.1-0.1,0.1-0.2,0.1l-0.6,0.1c0.1,0.2,0.3,0.3,0.4,0.5
			c0.1,0.2,0.2,0.3,0.3,0.5s0.1,0.3,0.2,0.5c0,0.2,0.1,0.4,0.1,0.6c0,0.2,0,0.5-0.1,0.7s-0.2,0.4-0.3,0.5c-0.1,0.2-0.3,0.3-0.5,0.4
			c-0.2,0.1-0.4,0.1-0.7,0.1c-0.2,0-0.5-0.1-0.7-0.2s-0.4-0.3-0.6-0.6c-0.2-0.3-0.3-0.7-0.4-1.2c-0.1-0.5-0.2-1.1-0.2-1.8h-0.5
			c-0.5,0-0.8,0.1-1.1,0.3s-0.4,0.5-0.4,0.9c0,0.3,0,0.5,0.1,0.7c0.1,0.2,0.1,0.3,0.2,0.5c0.1,0.1,0.2,0.2,0.2,0.3
			c0.1,0.1,0.1,0.2,0.1,0.3c0,0.1,0,0.1-0.1,0.2c0,0.1-0.1,0.1-0.1,0.1l-0.3,0.2c-0.3-0.3-0.6-0.7-0.7-1.1c-0.2-0.4-0.2-0.8-0.2-1.3
			c0-0.3,0.1-0.6,0.2-0.9c0.1-0.3,0.3-0.5,0.5-0.7c0.2-0.2,0.4-0.3,0.7-0.4c0.3-0.1,0.6-0.1,0.9-0.1H26V202.6z M25.3,204.9
			c0-0.2,0-0.4-0.1-0.5c0-0.2-0.1-0.3-0.2-0.4c-0.1-0.1-0.2-0.3-0.3-0.4c-0.1-0.1-0.2-0.2-0.3-0.4h-1.3c0,0.5,0.1,0.9,0.1,1.3
			s0.1,0.6,0.2,0.8s0.2,0.4,0.4,0.5c0.1,0.1,0.3,0.1,0.5,0.1c0.2,0,0.3,0,0.4-0.1c0.1-0.1,0.2-0.1,0.3-0.2c0.1-0.1,0.1-0.2,0.2-0.3
			C25.3,205.2,25.3,205,25.3,204.9z"/>
		<path class="st0" d="M17.2,196.3H26v1.1h-8.8V196.3z"/>
		<path class="st0" d="M26,190.7c0,0.1,0,0.2-0.1,0.2c0,0.1-0.1,0.1-0.2,0.1l-0.6,0.1c0.1,0.2,0.3,0.3,0.4,0.5
			c0.1,0.2,0.2,0.3,0.3,0.5s0.1,0.3,0.2,0.5c0,0.2,0.1,0.4,0.1,0.6c0,0.2,0,0.5-0.1,0.7s-0.2,0.4-0.3,0.5c-0.1,0.2-0.3,0.3-0.5,0.4
			c-0.2,0.1-0.4,0.1-0.7,0.1c-0.2,0-0.5-0.1-0.7-0.2s-0.4-0.3-0.6-0.6c-0.2-0.3-0.3-0.7-0.4-1.2c-0.1-0.5-0.2-1.1-0.2-1.8h-0.5
			c-0.5,0-0.8,0.1-1.1,0.3s-0.4,0.5-0.4,0.9c0,0.3,0,0.5,0.1,0.7c0.1,0.2,0.1,0.3,0.2,0.5c0.1,0.1,0.2,0.2,0.2,0.3
			c0.1,0.1,0.1,0.2,0.1,0.3c0,0.1,0,0.1-0.1,0.2c0,0.1-0.1,0.1-0.1,0.1l-0.3,0.2c-0.3-0.3-0.6-0.7-0.7-1.1c-0.2-0.4-0.2-0.8-0.2-1.3
			c0-0.3,0.1-0.6,0.2-0.9c0.1-0.3,0.3-0.5,0.5-0.7c0.2-0.2,0.4-0.3,0.7-0.4c0.3-0.1,0.6-0.1,0.9-0.1H26V190.7z M25.3,193
			c0-0.2,0-0.4-0.1-0.5c0-0.2-0.1-0.3-0.2-0.4c-0.1-0.1-0.2-0.3-0.3-0.4c-0.1-0.1-0.2-0.2-0.3-0.4h-1.3c0,0.5,0.1,0.9,0.1,1.3
			s0.1,0.6,0.2,0.8s0.2,0.4,0.4,0.5c0.1,0.1,0.3,0.1,0.5,0.1c0.2,0,0.3,0,0.4-0.1c0.1-0.1,0.2-0.1,0.3-0.2c0.1-0.1,0.1-0.2,0.2-0.3
			C25.3,193.3,25.3,193.2,25.3,193z"/>
		<path class="st0" d="M26,185.6h-8.8v-1.1h3.6c-0.3-0.3-0.5-0.5-0.7-0.9c-0.2-0.3-0.3-0.7-0.3-1.1c0-0.4,0.1-0.7,0.2-1
			c0.1-0.3,0.3-0.5,0.6-0.7c0.3-0.2,0.6-0.4,0.9-0.5c0.4-0.1,0.8-0.2,1.2-0.2c0.5,0,0.9,0.1,1.3,0.2c0.4,0.1,0.7,0.3,1,0.5
			c0.3,0.2,0.5,0.5,0.7,0.8c0.2,0.3,0.2,0.7,0.2,1.1c0,0.4-0.1,0.7-0.2,1s-0.4,0.5-0.6,0.7l0.6,0.1c0.2,0,0.2,0.1,0.2,0.3V185.6z
			 M20.7,182.9c0,0.3,0.1,0.7,0.2,0.9c0.2,0.3,0.4,0.5,0.7,0.7h2.9c0.3-0.2,0.4-0.4,0.6-0.6c0.1-0.2,0.2-0.5,0.2-0.8
			c0-0.6-0.2-1-0.6-1.3c-0.4-0.3-1-0.5-1.8-0.5c-0.7,0-1.3,0.1-1.6,0.4C20.9,182,20.7,182.4,20.7,182.9z"/>
		<path class="st0" d="M26,175c0,0.1,0,0.2-0.1,0.2c0,0.1-0.1,0.1-0.2,0.1l-0.6,0.1c0.1,0.2,0.3,0.3,0.4,0.5
			c0.1,0.2,0.2,0.3,0.3,0.5s0.1,0.3,0.2,0.5c0,0.2,0.1,0.4,0.1,0.6c0,0.2,0,0.5-0.1,0.7s-0.2,0.4-0.3,0.5c-0.1,0.2-0.3,0.3-0.5,0.4
			c-0.2,0.1-0.4,0.1-0.7,0.1c-0.2,0-0.5-0.1-0.7-0.2s-0.4-0.3-0.6-0.6c-0.2-0.3-0.3-0.7-0.4-1.2c-0.1-0.5-0.2-1.1-0.2-1.8h-0.5
			c-0.5,0-0.8,0.1-1.1,0.3s-0.4,0.5-0.4,0.9c0,0.3,0,0.5,0.1,0.7c0.1,0.2,0.1,0.3,0.2,0.5c0.1,0.1,0.2,0.2,0.2,0.3
			c0.1,0.1,0.1,0.2,0.1,0.3c0,0.1,0,0.1-0.1,0.2c0,0.1-0.1,0.1-0.1,0.1l-0.3,0.2c-0.3-0.3-0.6-0.7-0.7-1.1c-0.2-0.4-0.2-0.8-0.2-1.3
			c0-0.3,0.1-0.6,0.2-0.9c0.1-0.3,0.3-0.5,0.5-0.7c0.2-0.2,0.4-0.3,0.7-0.4c0.3-0.1,0.6-0.1,0.9-0.1H26V175z M25.3,177.3
			c0-0.2,0-0.4-0.1-0.5c0-0.2-0.1-0.3-0.2-0.4c-0.1-0.1-0.2-0.3-0.3-0.4c-0.1-0.1-0.2-0.2-0.3-0.4h-1.3c0,0.5,0.1,0.9,0.1,1.3
			s0.1,0.6,0.2,0.8s0.2,0.4,0.4,0.5c0.1,0.1,0.3,0.1,0.5,0.1c0.2,0,0.3,0,0.4-0.1c0.1-0.1,0.2-0.1,0.3-0.2c0.1-0.1,0.1-0.2,0.2-0.3
			C25.3,177.5,25.3,177.4,25.3,177.3z"/>
		<path class="st0" d="M18,171.5c0.1,0,0.2,0,0.3,0.1c0.1,0,0.2,0.1,0.2,0.2c0.1,0.1,0.1,0.2,0.2,0.2c0,0.1,0.1,0.2,0.1,0.3
			c0,0.1,0,0.2-0.1,0.3s-0.1,0.2-0.2,0.2c-0.1,0.1-0.1,0.1-0.2,0.2c-0.1,0-0.2,0.1-0.3,0.1s-0.2,0-0.3-0.1c-0.1,0-0.2-0.1-0.2-0.2
			c-0.1-0.1-0.1-0.1-0.2-0.2s-0.1-0.2-0.1-0.3c0-0.1,0-0.2,0.1-0.3c0-0.1,0.1-0.2,0.2-0.2c0.1-0.1,0.2-0.1,0.2-0.2
			C17.8,171.5,17.9,171.5,18,171.5z M19.9,171.7h6.5c0.2,0,0.5,0,0.7,0.1c0.2,0.1,0.4,0.2,0.5,0.3c0.2,0.1,0.3,0.3,0.4,0.5
			c0.1,0.2,0.1,0.5,0.1,0.8c0,0.1,0,0.2,0,0.4c0,0.1,0,0.2-0.1,0.3l-0.6,0c0,0-0.1,0-0.1,0c0,0,0,0,0-0.1c0,0,0-0.1,0-0.1
			c0-0.1,0-0.1,0-0.2c0-0.3-0.1-0.5-0.2-0.7s-0.4-0.2-0.7-0.2h-6.5V171.7z"/>
		<path class="st0" d="M26,166.1c0,0.1,0,0.2-0.1,0.2c0,0.1-0.1,0.1-0.2,0.1l-0.6,0.1c0.1,0.2,0.3,0.3,0.4,0.5
			c0.1,0.2,0.2,0.3,0.3,0.5s0.1,0.3,0.2,0.5c0,0.2,0.1,0.4,0.1,0.6c0,0.2,0,0.5-0.1,0.7s-0.2,0.4-0.3,0.5c-0.1,0.2-0.3,0.3-0.5,0.4
			c-0.2,0.1-0.4,0.1-0.7,0.1c-0.2,0-0.5-0.1-0.7-0.2s-0.4-0.3-0.6-0.6c-0.2-0.3-0.3-0.7-0.4-1.2c-0.1-0.5-0.2-1.1-0.2-1.8h-0.5
			c-0.5,0-0.8,0.1-1.1,0.3s-0.4,0.5-0.4,0.9c0,0.3,0,0.5,0.1,0.7c0.1,0.2,0.1,0.3,0.2,0.5c0.1,0.1,0.2,0.2,0.2,0.3
			c0.1,0.1,0.1,0.2,0.1,0.3c0,0.1,0,0.1-0.1,0.2c0,0.1-0.1,0.1-0.1,0.1l-0.3,0.2c-0.3-0.3-0.6-0.7-0.7-1.1c-0.2-0.4-0.2-0.8-0.2-1.3
			c0-0.3,0.1-0.6,0.2-0.9c0.1-0.3,0.3-0.5,0.5-0.7c0.2-0.2,0.4-0.3,0.7-0.4c0.3-0.1,0.6-0.1,0.9-0.1H26V166.1z M25.3,168.4
			c0-0.2,0-0.4-0.1-0.5c0-0.2-0.1-0.3-0.2-0.4c-0.1-0.1-0.2-0.3-0.3-0.4c-0.1-0.1-0.2-0.2-0.3-0.4h-1.3c0,0.5,0.1,0.9,0.1,1.3
			s0.1,0.6,0.2,0.8s0.2,0.4,0.4,0.5c0.1,0.1,0.3,0.1,0.5,0.1c0.2,0,0.3,0,0.4-0.1c0.1-0.1,0.2-0.1,0.3-0.2c0.1-0.1,0.1-0.2,0.2-0.3
			C25.3,168.7,25.3,168.6,25.3,168.4z"/>
	</g>
	<line class="st1" x1="28.5" y1="285" x2="28.5" y2="390"/>
	<line class="st1" x1="28.5" y1="390" x2="25.5" y2="377.5"/>
	<line class="st1" x1="28.8" y1="390" x2="31.7" y2="379"/>
	<g>
		<path class="st0" d="M22.8,368.2H26v1.2h-8.6v-2.5c0-0.5,0.1-1,0.2-1.4c0.1-0.4,0.3-0.7,0.5-1c0.2-0.3,0.5-0.5,0.8-0.6
			c0.3-0.1,0.7-0.2,1.1-0.2c0.4,0,0.8,0.1,1.1,0.2s0.6,0.3,0.9,0.6c0.2,0.3,0.4,0.6,0.6,1c0.1,0.4,0.2,0.9,0.2,1.4V368.2z
			 M21.9,368.2v-1.4c0-0.3,0-0.6-0.1-0.9s-0.2-0.5-0.4-0.6c-0.2-0.2-0.3-0.3-0.6-0.4c-0.2-0.1-0.5-0.1-0.7-0.1c-0.5,0-1,0.2-1.3,0.5
			c-0.3,0.3-0.5,0.9-0.5,1.5v1.4H21.9z"/>
		<path class="st0" d="M26,362.6h-6.1V362c0-0.1,0-0.2,0.1-0.2c0,0,0.1-0.1,0.2-0.1l0.9-0.1c-0.4-0.2-0.7-0.4-1-0.7
			c-0.2-0.3-0.4-0.6-0.4-1c0-0.1,0-0.3,0-0.4s0.1-0.2,0.1-0.3l0.8,0.1c0.1,0,0.1,0.1,0.1,0.2c0,0.1,0,0.1,0,0.2c0,0.1,0,0.2,0,0.4
			c0,0.2,0,0.4,0.1,0.5c0.1,0.2,0.1,0.3,0.3,0.4c0.1,0.1,0.2,0.2,0.4,0.3c0.2,0.1,0.3,0.2,0.6,0.3H26V362.6z"/>
		<path class="st0" d="M19.8,356c0-0.4,0.1-0.7,0.2-1c0.1-0.3,0.3-0.6,0.5-0.8c0.2-0.2,0.5-0.4,0.9-0.5s0.7-0.2,1.2-0.2
			c0.2,0,0.3,0,0.3,0.1c0.1,0,0.1,0.1,0.1,0.2v4.1c0.4,0,0.7-0.1,1-0.2c0.3-0.1,0.5-0.2,0.7-0.4c0.2-0.2,0.3-0.4,0.4-0.6
			c0.1-0.2,0.1-0.5,0.1-0.8c0-0.3,0-0.5-0.1-0.7c-0.1-0.2-0.1-0.4-0.2-0.5c-0.1-0.1-0.1-0.3-0.2-0.4c-0.1-0.1-0.1-0.2-0.1-0.2
			c0-0.1,0-0.2,0.1-0.2l0.4-0.3c0.2,0.1,0.3,0.3,0.4,0.5c0.1,0.2,0.2,0.4,0.3,0.6c0.1,0.2,0.1,0.4,0.2,0.7c0,0.2,0.1,0.4,0.1,0.7
			c0,0.4-0.1,0.8-0.2,1.2c-0.1,0.4-0.4,0.7-0.6,0.9c-0.3,0.3-0.6,0.5-1,0.6c-0.4,0.1-0.9,0.2-1.4,0.2c-0.4,0-0.8-0.1-1.2-0.2
			c-0.4-0.1-0.7-0.3-1-0.6s-0.5-0.5-0.6-0.9C19.9,356.8,19.8,356.4,19.8,356z M20.6,355.9c0,0.5,0.1,0.9,0.4,1.2s0.7,0.5,1.2,0.6
			v-3.3c-0.2,0-0.5,0-0.7,0.1c-0.2,0.1-0.4,0.2-0.5,0.3s-0.3,0.3-0.3,0.5C20.7,355.5,20.6,355.7,20.6,355.9z"/>
		<path class="st0" d="M20.9,348.6c0.1,0,0.1,0.1,0.1,0.2c0,0.1,0,0.1-0.1,0.2c0,0.1-0.1,0.2-0.1,0.3c-0.1,0.1-0.1,0.2-0.1,0.4
			c0,0.2-0.1,0.3-0.1,0.5c0,0.2,0,0.3,0.1,0.5c0,0.1,0.1,0.3,0.2,0.4c0.1,0.1,0.2,0.2,0.3,0.2s0.2,0.1,0.3,0.1c0.2,0,0.3,0,0.4-0.1
			s0.2-0.2,0.3-0.4c0.1-0.1,0.1-0.3,0.2-0.5c0.1-0.2,0.1-0.4,0.2-0.6c0.1-0.2,0.1-0.4,0.2-0.6c0.1-0.2,0.2-0.4,0.3-0.5
			c0.1-0.1,0.3-0.3,0.4-0.4c0.2-0.1,0.4-0.1,0.6-0.1c0.3,0,0.5,0,0.8,0.1c0.2,0.1,0.4,0.2,0.6,0.4c0.2,0.2,0.3,0.4,0.4,0.7
			c0.1,0.3,0.2,0.6,0.2,1c0,0.4-0.1,0.8-0.2,1.2c-0.1,0.3-0.3,0.6-0.5,0.9l-0.4-0.3c-0.1,0-0.1-0.1-0.1-0.1s0-0.1,0-0.2
			c0-0.1,0-0.1,0.1-0.2s0.1-0.2,0.2-0.3s0.1-0.3,0.2-0.4s0.1-0.4,0.1-0.6c0-0.2,0-0.4-0.1-0.5c-0.1-0.2-0.1-0.3-0.2-0.4
			c-0.1-0.1-0.2-0.2-0.3-0.2c-0.1,0-0.2-0.1-0.4-0.1c-0.2,0-0.3,0-0.4,0.1c-0.1,0.1-0.2,0.2-0.3,0.4c-0.1,0.1-0.1,0.3-0.2,0.5
			c-0.1,0.2-0.1,0.4-0.2,0.6c-0.1,0.2-0.1,0.4-0.2,0.6c-0.1,0.2-0.2,0.4-0.3,0.5c-0.1,0.1-0.3,0.3-0.5,0.4s-0.4,0.1-0.7,0.1
			c-0.2,0-0.5,0-0.7-0.1c-0.2-0.1-0.4-0.2-0.6-0.4s-0.3-0.4-0.4-0.7c-0.1-0.3-0.1-0.6-0.1-0.9c0-0.4,0.1-0.8,0.2-1.1
			c0.1-0.3,0.3-0.6,0.5-0.8L20.9,348.6z"/>
		<path class="st0" d="M18,345.6c0.1,0,0.2,0,0.3,0.1c0.1,0,0.2,0.1,0.2,0.2c0.1,0.1,0.1,0.2,0.2,0.2c0,0.1,0.1,0.2,0.1,0.3
			c0,0.1,0,0.2-0.1,0.3s-0.1,0.2-0.2,0.2c-0.1,0.1-0.1,0.1-0.2,0.2c-0.1,0-0.2,0.1-0.3,0.1s-0.2,0-0.3-0.1c-0.1,0-0.2-0.1-0.2-0.2
			c-0.1-0.1-0.1-0.1-0.2-0.2s-0.1-0.2-0.1-0.3c0-0.1,0-0.2,0.1-0.3c0-0.1,0.1-0.2,0.2-0.2c0.1-0.1,0.2-0.1,0.2-0.2
			C17.8,345.6,17.9,345.6,18,345.6z M19.9,345.8H26v1.1h-6.1V345.8z"/>
		<path class="st0" d="M17.3,339.7l1.5,1.4c0.1,0.1,0.1,0.1,0.1,0.2c0,0.1,0,0.1,0,0.2v0.6l-1.5-0.9c-0.1-0.1-0.2-0.1-0.2-0.2
			c0-0.1-0.1-0.2-0.1-0.3V339.7z M19.8,341.5c0-0.4,0.1-0.8,0.2-1.2c0.1-0.4,0.4-0.7,0.6-0.9c0.3-0.3,0.6-0.4,1-0.6
			c0.4-0.1,0.8-0.2,1.3-0.2c0.5,0,0.9,0.1,1.3,0.2c0.4,0.1,0.7,0.3,1,0.6c0.3,0.3,0.5,0.6,0.6,0.9c0.1,0.4,0.2,0.8,0.2,1.2
			c0,0.4-0.1,0.9-0.2,1.2c-0.1,0.4-0.4,0.7-0.6,0.9c-0.3,0.3-0.6,0.4-1,0.6c-0.4,0.1-0.8,0.2-1.3,0.2c-0.5,0-0.9-0.1-1.3-0.2
			s-0.7-0.3-1-0.6s-0.5-0.6-0.6-0.9C19.9,342.3,19.8,341.9,19.8,341.5z M25.3,341.5c0-0.6-0.2-1-0.6-1.3s-1-0.4-1.7-0.4
			c-0.7,0-1.3,0.1-1.7,0.4c-0.4,0.3-0.6,0.7-0.6,1.3c0,0.3,0.1,0.6,0.2,0.8c0.1,0.2,0.3,0.4,0.5,0.6c0.2,0.1,0.4,0.3,0.7,0.3
			s0.6,0.1,1,0.1c0.7,0,1.3-0.1,1.7-0.4S25.3,342.1,25.3,341.5z"/>
		<path class="st0" d="M26,337.2h-6.1v-0.6c0-0.2,0.1-0.2,0.2-0.3l0.7-0.1c-0.3-0.3-0.5-0.6-0.7-0.9c-0.2-0.3-0.3-0.7-0.3-1.1
			c0-0.3,0.1-0.6,0.2-0.9c0.1-0.3,0.3-0.5,0.5-0.6s0.4-0.3,0.7-0.4s0.6-0.1,0.9-0.1H26v1.1h-3.9c-0.5,0-0.8,0.1-1.1,0.3
			c-0.3,0.2-0.4,0.5-0.4,1c0,0.3,0.1,0.6,0.2,0.9c0.2,0.3,0.4,0.5,0.6,0.8H26V337.2z"/>
		<path class="st0" d="M26,323.6c0,0.1,0,0.2-0.1,0.2c0,0.1-0.1,0.1-0.2,0.1l-0.6,0.1c0.1,0.2,0.3,0.3,0.4,0.5
			c0.1,0.2,0.2,0.3,0.3,0.5s0.1,0.3,0.2,0.5c0,0.2,0.1,0.4,0.1,0.6c0,0.2,0,0.5-0.1,0.7s-0.2,0.4-0.3,0.5c-0.1,0.2-0.3,0.3-0.5,0.4
			c-0.2,0.1-0.4,0.1-0.7,0.1c-0.2,0-0.5-0.1-0.7-0.2s-0.4-0.3-0.6-0.6c-0.2-0.3-0.3-0.7-0.4-1.2c-0.1-0.5-0.2-1.1-0.2-1.8h-0.5
			c-0.5,0-0.8,0.1-1.1,0.3s-0.4,0.5-0.4,0.9c0,0.3,0,0.5,0.1,0.7c0.1,0.2,0.1,0.3,0.2,0.5c0.1,0.1,0.2,0.2,0.2,0.3
			c0.1,0.1,0.1,0.2,0.1,0.3c0,0.1,0,0.1-0.1,0.2c0,0.1-0.1,0.1-0.1,0.1l-0.3,0.2c-0.3-0.3-0.6-0.7-0.7-1.1c-0.2-0.4-0.2-0.8-0.2-1.3
			c0-0.3,0.1-0.6,0.2-0.9c0.1-0.3,0.3-0.5,0.5-0.7c0.2-0.2,0.4-0.3,0.7-0.4c0.3-0.1,0.6-0.1,0.9-0.1H26V323.6z M25.3,325.9
			c0-0.2,0-0.4-0.1-0.5c0-0.2-0.1-0.3-0.2-0.4c-0.1-0.1-0.2-0.3-0.3-0.4c-0.1-0.1-0.2-0.2-0.3-0.4h-1.3c0,0.5,0.1,0.9,0.1,1.3
			s0.1,0.6,0.2,0.8s0.2,0.4,0.4,0.5c0.1,0.1,0.3,0.1,0.5,0.1c0.2,0,0.3,0,0.4-0.1c0.1-0.1,0.2-0.1,0.3-0.2c0.1-0.1,0.1-0.2,0.2-0.3
			C25.3,326.2,25.3,326,25.3,325.9z"/>
		<path class="st0" d="M17.2,320.4H26v1.1h-8.8V320.4z"/>
		<path class="st0" d="M26,311.7c0,0.1,0,0.2-0.1,0.2c0,0.1-0.1,0.1-0.2,0.1l-0.6,0.1c0.1,0.2,0.3,0.3,0.4,0.5
			c0.1,0.2,0.2,0.3,0.3,0.5s0.1,0.3,0.2,0.5c0,0.2,0.1,0.4,0.1,0.6c0,0.2,0,0.5-0.1,0.7s-0.2,0.4-0.3,0.5c-0.1,0.2-0.3,0.3-0.5,0.4
			c-0.2,0.1-0.4,0.1-0.7,0.1c-0.2,0-0.5-0.1-0.7-0.2s-0.4-0.3-0.6-0.6c-0.2-0.3-0.3-0.7-0.4-1.2c-0.1-0.5-0.2-1.1-0.2-1.8h-0.5
			c-0.5,0-0.8,0.1-1.1,0.3s-0.4,0.5-0.4,0.9c0,0.3,0,0.5,0.1,0.7c0.1,0.2,0.1,0.3,0.2,0.5c0.1,0.1,0.2,0.2,0.2,0.3
			c0.1,0.1,0.1,0.2,0.1,0.3c0,0.1,0,0.1-0.1,0.2c0,0.1-0.1,0.1-0.1,0.1l-0.3,0.2c-0.3-0.3-0.6-0.7-0.7-1.1c-0.2-0.4-0.2-0.8-0.2-1.3
			c0-0.3,0.1-0.6,0.2-0.9c0.1-0.3,0.3-0.5,0.5-0.7c0.2-0.2,0.4-0.3,0.7-0.4c0.3-0.1,0.6-0.1,0.9-0.1H26V311.7z M25.3,314
			c0-0.2,0-0.4-0.1-0.5c0-0.2-0.1-0.3-0.2-0.4c-0.1-0.1-0.2-0.3-0.3-0.4c-0.1-0.1-0.2-0.2-0.3-0.4h-1.3c0,0.5,0.1,0.9,0.1,1.3
			s0.1,0.6,0.2,0.8s0.2,0.4,0.4,0.5c0.1,0.1,0.3,0.1,0.5,0.1c0.2,0,0.3,0,0.4-0.1c0.1-0.1,0.2-0.1,0.3-0.2c0.1-0.1,0.1-0.2,0.2-0.3
			C25.3,314.3,25.3,314.2,25.3,314z"/>
		<path class="st0" d="M17.2,308.5H26v1.1h-8.8V308.5z"/>
		<path class="st0" d="M20.4,302.6c0.1,0,0.1,0,0.2,0c0.1,0,0.1,0.1,0.2,0.1l4.4,3.3v-3.3H26v4.6h-0.4c-0.1,0-0.1,0-0.2,0
			c-0.1,0-0.1-0.1-0.2-0.1l-4.4-3.3v3.3h-0.8v-4.5H20.4z"/>
		<path class="st0" d="M26,297.5c0,0.1,0,0.2-0.1,0.2c0,0.1-0.1,0.1-0.2,0.1l-0.6,0.1c0.1,0.2,0.3,0.3,0.4,0.5
			c0.1,0.2,0.2,0.3,0.3,0.5s0.1,0.3,0.2,0.5c0,0.2,0.1,0.4,0.1,0.6c0,0.2,0,0.5-0.1,0.7s-0.2,0.4-0.3,0.5c-0.1,0.2-0.3,0.3-0.5,0.4
			c-0.2,0.1-0.4,0.1-0.7,0.1c-0.2,0-0.5-0.1-0.7-0.2s-0.4-0.3-0.6-0.6c-0.2-0.3-0.3-0.7-0.4-1.2c-0.1-0.5-0.2-1.1-0.2-1.8h-0.5
			c-0.5,0-0.8,0.1-1.1,0.3s-0.4,0.5-0.4,0.9c0,0.3,0,0.5,0.1,0.7c0.1,0.2,0.1,0.3,0.2,0.5c0.1,0.1,0.2,0.2,0.2,0.3
			c0.1,0.1,0.1,0.2,0.1,0.3c0,0.1,0,0.1-0.1,0.2c0,0.1-0.1,0.1-0.1,0.1l-0.3,0.2c-0.3-0.3-0.6-0.7-0.7-1.1c-0.2-0.4-0.2-0.8-0.2-1.3
			c0-0.3,0.1-0.6,0.2-0.9c0.1-0.3,0.3-0.5,0.5-0.7c0.2-0.2,0.4-0.3,0.7-0.4c0.3-0.1,0.6-0.1,0.9-0.1H26V297.5z M25.3,299.8
			c0-0.2,0-0.4-0.1-0.5c0-0.2-0.1-0.3-0.2-0.4c-0.1-0.1-0.2-0.3-0.3-0.4c-0.1-0.1-0.2-0.2-0.3-0.4h-1.3c0,0.5,0.1,0.9,0.1,1.3
			s0.1,0.6,0.2,0.8s0.2,0.4,0.4,0.5c0.1,0.1,0.3,0.1,0.5,0.1c0.2,0,0.3,0,0.4-0.1c0.1-0.1,0.2-0.1,0.3-0.2c0.1-0.1,0.1-0.2,0.2-0.3
			C25.3,300.1,25.3,299.9,25.3,299.8z"/>
	</g>
</g>
</svg>
